<?xml version="1.0" encoding="UTF-8" standalone="no"?>
<!-- Created with Inkscape (http://www.inkscape.org/) -->

<svg
   xmlns:dc="http://purl.org/dc/elements/1.1/"
   xmlns:cc="http://creativecommons.org/ns#"
   xmlns:rdf="http://www.w3.org/1999/02/22-rdf-syntax-ns#"
   xmlns:svg="http://www.w3.org/2000/svg"
   xmlns="http://www.w3.org/2000/svg"
   xmlns:sodipodi="http://sodipodi.sourceforge.net/DTD/sodipodi-0.dtd"
   xmlns:inkscape="http://www.inkscape.org/namespaces/inkscape"
   width="195.92511mm"
   height="149.35318mm"
   viewBox="0 0 694.22283 529.20418"
   id="svg9395"
   version="1.1"
   inkscape:version="0.91 r13725"
   sodipodi:docname="capture.svg">
  <defs
     id="defs9397">
    <marker
       style="overflow:visible"
       id="Arrow1Mend"
       refX="0"
       refY="0"
       orient="auto"
       inkscape:stockid="Arrow1Mend">
      <path
         inkscape:connector-curvature="0"
         transform="matrix(-0.4,0,0,-0.4,-4,0)"
         style="fill-rule:evenodd;stroke:#000000;stroke-width:1pt"
         d="M 0,0 5,-5 -12.5,0 5,5 0,0 Z"
         id="path232389" />
    </marker>
    <marker
       style="overflow:visible"
       id="marker9258"
       refX="0"
       refY="0"
       orient="auto"
       inkscape:stockid="Arrow1Mend">
      <path
         inkscape:connector-curvature="0"
         transform="matrix(-0.4,0,0,-0.4,-4,0)"
         style="fill-rule:evenodd;stroke:#000000;stroke-width:1pt"
         d="M 0,0 5,-5 -12.5,0 5,5 0,0 Z"
         id="path9260" />
    </marker>
    <marker
       style="overflow:visible"
       id="marker9262"
       refX="0"
       refY="0"
       orient="auto"
       inkscape:stockid="Arrow1Mend">
      <path
         inkscape:connector-curvature="0"
         transform="matrix(-0.4,0,0,-0.4,-4,0)"
         style="fill-rule:evenodd;stroke:#000000;stroke-width:1pt"
         d="M 0,0 5,-5 -12.5,0 5,5 0,0 Z"
         id="path9264" />
    </marker>
    <marker
       style="overflow:visible"
       id="marker9266"
       refX="0"
       refY="0"
       orient="auto"
       inkscape:stockid="Arrow1Mend">
      <path
         inkscape:connector-curvature="0"
         transform="matrix(-0.4,0,0,-0.4,-4,0)"
         style="fill-rule:evenodd;stroke:#000000;stroke-width:1pt"
         d="M 0,0 5,-5 -12.5,0 5,5 0,0 Z"
         id="path9268" />
    </marker>
    <marker
       style="overflow:visible"
       id="marker9270"
       refX="0"
       refY="0"
       orient="auto"
       inkscape:stockid="Arrow1Mend">
      <path
         inkscape:connector-curvature="0"
         transform="matrix(-0.4,0,0,-0.4,-4,0)"
         style="fill-rule:evenodd;stroke:#000000;stroke-width:1pt"
         d="M 0,0 5,-5 -12.5,0 5,5 0,0 Z"
         id="path9272" />
    </marker>
    <marker
       style="overflow:visible"
       id="marker9274"
       refX="0"
       refY="0"
       orient="auto"
       inkscape:stockid="Arrow1Mend">
      <path
         inkscape:connector-curvature="0"
         transform="matrix(-0.4,0,0,-0.4,-4,0)"
         style="fill-rule:evenodd;stroke:#000000;stroke-width:1pt"
         d="M 0,0 5,-5 -12.5,0 5,5 0,0 Z"
         id="path9276" />
    </marker>
    <marker
       style="overflow:visible"
       id="marker9278"
       refX="0"
       refY="0"
       orient="auto"
       inkscape:stockid="Arrow1Mend">
      <path
         inkscape:connector-curvature="0"
         transform="matrix(-0.4,0,0,-0.4,-4,0)"
         style="fill-rule:evenodd;stroke:#000000;stroke-width:1pt"
         d="M 0,0 5,-5 -12.5,0 5,5 0,0 Z"
         id="path9280" />
    </marker>
    <clipPath
       id="p7ff5b81e1d-4-1">
      <rect
         id="rect59922-6"
         y="43.200001"
         x="72"
         width="446.39999"
         height="345.60001" />
    </clipPath>
    <clipPath
       id="clipPath10253">
      <rect
         id="rect10255"
         y="43.200001"
         x="72"
         width="446.39999"
         height="345.60001" />
    </clipPath>
    <clipPath
       id="p7ff5b81e1d-4-1-1">
      <rect
         id="rect59922-6-1"
         y="43.200001"
         x="72"
         width="446.39999"
         height="345.60001" />
    </clipPath>
    <clipPath
       id="clipPath10993">
      <rect
         id="rect10995"
         y="43.200001"
         x="72"
         width="446.39999"
         height="345.60001" />
    </clipPath>
    <clipPath
       id="p7ff5b81e1d-4-1-0">
      <rect
         id="rect59922-6-9"
         y="43.200001"
         x="72"
         width="446.39999"
         height="345.60001" />
    </clipPath>
    <clipPath
       id="clipPath11985">
      <rect
         id="rect11987"
         y="43.200001"
         x="72"
         width="446.39999"
         height="345.60001" />
    </clipPath>
  </defs>
  <sodipodi:namedview
     id="base"
     pagecolor="#ffffff"
     bordercolor="#666666"
     borderopacity="1.0"
     inkscape:pageopacity="1"
     inkscape:pageshadow="2"
     inkscape:zoom="0.7"
     inkscape:cx="201.83344"
     inkscape:cy="160.03269"
     inkscape:document-units="px"
     inkscape:current-layer="layer1"
     showgrid="false"
     fit-margin-top="10"
     fit-margin-left="10"
     fit-margin-right="10"
     fit-margin-bottom="10"
     inkscape:window-width="1920"
     inkscape:window-height="1016"
     inkscape:window-x="0"
     inkscape:window-y="27"
     inkscape:window-maximized="1" />
  <metadata
     id="metadata9400">
    <rdf:RDF>
      <cc:Work
         rdf:about="">
        <dc:format>image/svg+xml</dc:format>
        <dc:type
           rdf:resource="http://purl.org/dc/dcmitype/StillImage" />
        <dc:title></dc:title>
      </cc:Work>
    </rdf:RDF>
  </metadata>
  <g
     inkscape:label="Layer 1"
     inkscape:groupmode="layer"
     id="layer1"
     transform="translate(-7.1742885,-267.76009)">
    <rect
       style="fill:#000000;fill-opacity:0.34803922;stroke:none"
       id="rect3986"
       width="269.18771"
       height="197.86096"
       x="437.70465"
       y="74.367508"
       transform="matrix(0.78815844,0.61547239,-0.61547239,0.78815844,0,0)" />
    <ellipse
       ry="8.3705883"
       rx="8.1176672"
       cy="627.35596"
       cx="342.51282"
       style="fill:#000000;fill-opacity:1;stroke:none"
       id="path3965" />
    <path
       sodipodi:type="arc"
       style="fill:none;stroke:#000000;stroke-width:2.77540255;stroke-linecap:butt;stroke-linejoin:round;stroke-miterlimit:4;stroke-dasharray:11.10161018, 11.10161018;stroke-dashoffset:0;stroke-opacity:1"
       id="path3760"
       sodipodi:cx="358.51666"
       sodipodi:cy="-394.18726"
       sodipodi:rx="325.78613"
       sodipodi:ry="335.93658"
       d="M 52.377837,-509.08433 A 325.78613,335.93658 0 0 1 358.51667,-730.12384 325.78613,335.93658 0 0 1 664.65549,-509.08432"
       transform="scale(1,-1)"
       sodipodi:start="3.4906585"
       sodipodi:end="5.9341195"
       sodipodi:open="true" />
    <rect
       style="fill:#000000;fill-opacity:1;stroke:#000000;stroke-width:1.51396823;stroke-linecap:butt;stroke-linejoin:round;stroke-miterlimit:4;stroke-dasharray:none;stroke-dashoffset:0;stroke-opacity:1"
       id="rect3762"
       width="81.990814"
       height="20.795517"
       x="454.81854"
       y="470.12021"
       transform="matrix(0.85030088,0.52629688,-0.50308517,0.86423684,0,0)" />
    <path
       style="opacity:0.54310345;fill:none;stroke:#000000;stroke-width:4.36168766;stroke-linecap:butt;stroke-linejoin:miter;stroke-miterlimit:4;stroke-dasharray:4.36168725, 8.7233745;stroke-dashoffset:0;stroke-opacity:1"
       d="m 587.16845,313.16036 c -93.31162,49.32601 -125.71552,68.05386 -182.71551,113.66203 -49.86327,39.8977 -83.48669,73.90542 -124.8607,135.76716"
       id="path3783"
       inkscape:connector-curvature="0"
       sodipodi:nodetypes="csc" />
    <g
       transform="matrix(5.4516228,0,0,5.4516228,-5653.1909,801.67574)"
       id="text5177"
       style="font-style:normal;font-variant:normal;font-weight:normal;font-stretch:normal;font-size:4.26704741px;line-height:125%;font-family:Serif;-inkscape-font-specification:Serif;letter-spacing:0px;word-spacing:0px;fill:#000000;fill-opacity:1;stroke:none">
      <path
         inkscape:connector-curvature="0"
         id="path7855"
         d="m 1047.5585,-9.0743481 c -0.092,0.2903042 -0.2458,0.5104625 -0.4625,0.6604756 -0.2153,0.1486244 -0.4883,0.2229365 -0.8188,0.2229365 -0.2028,0 -0.391,-0.034725 -0.5647,-0.1041759 -0.1736,-0.069451 -0.3278,-0.1715429 -0.4625,-0.3062774 -0.1556,-0.1555689 -0.2716,-0.3319733 -0.348,-0.5292139 -0.075,-0.1986277 -0.1125,-0.4229531 -0.1125,-0.6729767 0,-0.4833741 0.1396,-0.8729921 0.4188,-1.1688541 0.2792,-0.297246 0.6473,-0.44587 1.1043,-0.445873 0.1694,3e-6 0.35,0.02223 0.5417,0.06667 0.1917,0.04445 0.3979,0.111819 0.6188,0.202102 l 0,0.71673 -0.2354,0 c -0.051,-0.261132 -0.1549,-0.45351 -0.3105,-0.577135 -0.1542,-0.123619 -0.3708,-0.18543 -0.65,-0.185433 -0.332,3e-6 -0.5834,0.118069 -0.7543,0.354199 -0.1708,0.234745 -0.2562,0.580609 -0.2562,1.0375921 0,0.4555973 0.085,0.8014612 0.2562,1.0375926 0.1709,0.2347435 0.4223,0.3521149 0.7543,0.3521148 0.2319,1e-7 0.4229,-0.054866 0.5729,-0.1645981 0.15,-0.1111205 0.2584,-0.2764129 0.3251,-0.4958775 l 0.3833,0" />
      <path
         inkscape:connector-curvature="0"
         id="path7857"
         d="m 1049.515,-8.9472535 0,-0.4687918 -0.4938,0 c -0.1903,1.2e-6 -0.332,0.040977 -0.4251,0.1229276 -0.093,0.081953 -0.1396,0.2076583 -0.1396,0.377117 0,0.154181 0.047,0.276414 0.1417,0.3666994 0.095,0.090286 0.2222,0.1354289 0.3834,0.1354288 0.1597,10e-8 0.2882,-0.04931 0.3854,-0.1479299 0.099,-0.098619 0.148,-0.2271031 0.148,-0.3854511 m 0.3833,-0.6875613 0,1.1626037 0.3417,0 0,0.2208531 -0.725,0 0,-0.2396047 c -0.085,0.102787 -0.1827,0.1784882 -0.2938,0.2271036 -0.1111,0.048615 -0.241,0.072923 -0.3896,0.072923 -0.2459,0 -0.4411,-0.065284 -0.5855,-0.1958508 -0.1445,-0.1305669 -0.2167,-0.3069714 -0.2167,-0.5292139 0,-0.2291862 0.083,-0.4069797 0.2479,-0.5333809 0.1653,-0.1263988 0.3987,-0.1895989 0.7001,-0.1896002 l 0.5376,0 0,-0.152097 c 0,-0.1680688 -0.051,-0.2979411 -0.1542,-0.3896181 -0.1014,-0.09306 -0.2445,-0.139594 -0.4292,-0.139596 -0.1528,2e-6 -0.2744,0.03473 -0.3646,0.104176 -0.09,0.06945 -0.1466,0.17224 -0.1688,0.3083611 l -0.1979,0 0,-0.4479561 c 0.1333,-0.05695 0.2625,-0.09931 0.3875,-0.127095 0.1264,-0.02917 0.2493,-0.04375 0.3688,-0.04375 0.3069,2e-6 0.5403,0.0764 0.7,0.229187 0.1612,0.151404 0.2417,0.3722571 0.2417,0.6625591" />
      <path
         inkscape:connector-curvature="0"
         id="path7859"
         d="m 1051.2339,-9.4681333 0,0.2187696 c 0,0.2666911 0.051,0.4701813 0.1521,0.6104711 0.1027,0.1389015 0.2514,0.2083521 0.4458,0.2083519 0.1959,2e-7 0.3438,-0.078479 0.4438,-0.2354377 0.1014,-0.1569578 0.1521,-0.3882282 0.1521,-0.6938119 0,-0.3069704 -0.051,-0.5382408 -0.1521,-0.6938117 -0.1,-0.155568 -0.2479,-0.233352 -0.4438,-0.233354 -0.1944,2e-6 -0.3431,0.07015 -0.4458,0.210435 -0.1014,0.1402921 -0.1521,0.3430878 -0.1521,0.6083877 m -0.3834,-0.7750687 -0.3688,0 0,-0.222937 0.7522,0 0,0.345864 c 0.075,-0.138899 0.1701,-0.240991 0.2854,-0.306277 0.1167,-0.06667 0.2604,-0.100007 0.4313,-0.100009 0.2722,2e-6 0.4945,0.107651 0.6667,0.322945 0.1722,0.2152992 0.2584,0.496574 0.2584,0.8438257 0,0.347254 -0.086,0.6292233 -0.2584,0.8459088 -0.1722,0.2152971 -0.3945,0.3229455 -0.6667,0.3229455 -0.1709,0 -0.3146,-0.032642 -0.4313,-0.097925 -0.1153,-0.066672 -0.2104,-0.1694593 -0.2854,-0.3083608 l 0,1.0105068 0.3625,0 0,0.2229366 -1.1147,0 0,-0.2229366 0.3688,0 0,-2.656487" />
      <path
         inkscape:connector-curvature="0"
         id="path7861"
         d="m 1053.5528,-10.243202 -0.3375,0 0,-0.222937 0.3375,0 0,-0.687561 0.3855,0 0,0.687561 0.7209,0 0,0.222937 -0.7209,0 0,1.4063751 c 0,0.1875171 0.018,0.3076666 0.054,0.3604488 0.036,0.052783 0.1028,0.079174 0.2001,0.079174 0.1,2e-7 0.1729,-0.029169 0.2187,-0.087508 0.046,-0.059727 0.07,-0.155569 0.073,-0.2875256 l 0.2897,0 c -0.011,0.2014071 -0.066,0.3486423 -0.1646,0.441706 -0.099,0.093064 -0.2487,0.1395958 -0.4501,0.1395958 -0.2208,0 -0.3771,-0.048615 -0.4688,-0.1458463 -0.092,-0.09862 -0.1375,-0.2653011 -0.1375,-0.5000446 l 0,-1.4063752" />
      <path
         inkscape:connector-curvature="0"
         id="path7863"
         d="m 1056.3197,-10.466139 0.7168,0 0,1.9939279 0.3625,0 0,0.2208531 -0.7459,0 0,-0.3917016 c -0.071,0.1472356 -0.1625,0.2597455 -0.275,0.3375301 -0.1125,0.076396 -0.2431,0.1145935 -0.3917,0.1145935 -0.2459,0 -0.4272,-0.069451 -0.5438,-0.2083519 -0.1153,-0.14029 -0.173,-0.3597538 -0.173,-0.6583921 l 0,-1.185522 -0.3458,0 0,-0.222937 0.7313,0 0,1.2896984 c 0,0.2694692 0.033,0.4542077 0.098,0.5542161 0.067,0.1000092 0.1847,0.1500136 0.3542,0.1500134 0.1778,2e-7 0.3132,-0.065283 0.4063,-0.1958508 0.093,-0.1305666 0.1396,-0.3201667 0.1396,-0.5688007 l 0,-1.0063394 -0.3334,0 0,-0.222937" />
      <path
         inkscape:connector-curvature="0"
         id="path7865"
         d="m 1059.5992,-10.470306 0,0.5542161 -0.2209,0 c -0.01,-0.1097301 -0.038,-0.1916821 -0.092,-0.2458551 -0.054,-0.05417 -0.1334,-0.08126 -0.2376,-0.08126 -0.1889,2e-6 -0.334,0.06528 -0.4354,0.19585 -0.1,0.1305693 -0.15,0.3180858 -0.15,0.5625506 l 0,1.0125903 0.4438,0 0,0.2208531 -1.1731,0 0,-0.2208531 0.3459,0 0,-1.7751579 -0.3667,0 0,-0.21877 0.7501,0 0,0.393785 c 0.075,-0.154178 0.1715,-0.268077 0.2896,-0.341697 0.118,-0.075 0.2618,-0.112508 0.4313,-0.11251 0.063,2e-6 0.1278,0.0049 0.1958,0.01458 0.07,0.0097 0.1424,0.02362 0.2188,0.04167" />
      <path
         inkscape:connector-curvature="0"
         id="path7867"
         d="m 1061.914,-9.3181199 -1.6523,0 0,0.016668 c 0,0.2986385 0.056,0.5243528 0.1688,0.6771437 0.1125,0.1514026 0.2785,0.2271038 0.498,0.2271036 0.168,2e-7 0.3056,-0.043754 0.4125,-0.1312617 0.1083,-0.088896 0.1841,-0.220158 0.2271,-0.3937851 l 0.3084,0 c -0.061,0.2430776 -0.1744,0.4257326 -0.3396,0.5479655 -0.1639,0.1222332 -0.3799,0.1833497 -0.648,0.1833497 -0.3237,0 -0.5841,-0.1062594 -0.7813,-0.3187784 -0.1959,-0.2139075 -0.2938,-0.4972659 -0.2938,-0.8500759 0,-0.3500297 0.097,-0.6319991 0.2896,-0.8459085 0.1931,-0.213906 0.4466,-0.32086 0.7605,-0.320862 0.3347,2e-6 0.5917,0.103484 0.7709,0.310444 0.1792,0.205576 0.2722,0.5049077 0.2792,0.8979969 m -0.4521,-0.220853 c -0.01,-0.2583549 -0.063,-0.4528165 -0.1646,-0.5833849 -0.1001,-0.131955 -0.2445,-0.197933 -0.4334,-0.197935 -0.1764,2e-6 -0.3153,0.06598 -0.4167,0.197935 -0.1014,0.1319574 -0.1632,0.326419 -0.1855,0.5833849 l 1.2002,0" />
      <path
         inkscape:connector-curvature="0"
         id="path7869"
         d="m 1065.183,-8.9472535 0,-0.4687918 -0.4938,0 c -0.1903,1.2e-6 -0.332,0.040977 -0.425,0.1229276 -0.093,0.081953 -0.1396,0.2076583 -0.1396,0.377117 0,0.154181 0.047,0.276414 0.1417,0.3666994 0.094,0.090286 0.2222,0.1354289 0.3833,0.1354288 0.1598,10e-8 0.2883,-0.04931 0.3855,-0.1479299 0.099,-0.098619 0.1479,-0.2271031 0.1479,-0.3854511 m 0.3834,-0.6875613 0,1.1626037 0.3417,0 0,0.2208531 -0.7251,0 0,-0.2396047 c -0.085,0.102787 -0.1826,0.1784882 -0.2938,0.2271036 -0.1111,0.048615 -0.241,0.072923 -0.3896,0.072923 -0.2458,0 -0.441,-0.065284 -0.5854,-0.1958508 -0.1445,-0.1305669 -0.2167,-0.3069714 -0.2167,-0.5292139 0,-0.2291862 0.083,-0.4069797 0.2479,-0.5333809 0.1653,-0.1263988 0.3987,-0.1895989 0.7001,-0.1896002 l 0.5375,0 0,-0.152097 c 0,-0.1680688 -0.051,-0.2979411 -0.1542,-0.3896181 -0.1014,-0.09306 -0.2444,-0.139594 -0.4292,-0.139596 -0.1528,2e-6 -0.2743,0.03473 -0.3646,0.104176 -0.09,0.06945 -0.1465,0.17224 -0.1687,0.3083611 l -0.198,0 0,-0.4479561 c 0.1334,-0.05695 0.2625,-0.09931 0.3876,-0.127095 0.1264,-0.02917 0.2493,-0.04375 0.3687,-0.04375 0.307,2e-6 0.5404,0.0764 0.7001,0.229187 0.1611,0.151404 0.2417,0.3722571 0.2417,0.6625591" />
      <path
         inkscape:connector-curvature="0"
         id="path7871"
         d="m 1068.0666,-10.470306 0,0.5542161 -0.2208,0 c -0.01,-0.1097301 -0.038,-0.1916821 -0.092,-0.2458551 -0.054,-0.05417 -0.1334,-0.08126 -0.2375,-0.08126 -0.1889,2e-6 -0.3341,0.06528 -0.4355,0.19585 -0.1,0.1305693 -0.15,0.3180858 -0.15,0.5625506 l 0,1.0125903 0.4438,0 0,0.2208531 -1.173,0 0,-0.2208531 0.3458,0 0,-1.7751579 -0.3667,0 0,-0.21877 0.7501,0 0,0.393785 c 0.075,-0.154178 0.1715,-0.268077 0.2896,-0.341697 0.1181,-0.075 0.2618,-0.112508 0.4313,-0.11251 0.063,2e-6 0.1278,0.0049 0.1958,0.01458 0.07,0.0097 0.1424,0.02362 0.2188,0.04167" />
      <path
         inkscape:connector-curvature="0"
         id="path7873"
         d="m 1070.3814,-9.3181199 -1.6522,0 0,0.016668 c 0,0.2986385 0.056,0.5243528 0.1687,0.6771437 0.1125,0.1514026 0.2785,0.2271038 0.498,0.2271036 0.1681,2e-7 0.3056,-0.043754 0.4125,-0.1312617 0.1084,-0.088896 0.1841,-0.220158 0.2271,-0.3937851 l 0.3084,0 c -0.061,0.2430776 -0.1743,0.4257326 -0.3396,0.5479655 -0.1639,0.1222332 -0.3799,0.1833497 -0.648,0.1833497 -0.3236,0 -0.5841,-0.1062594 -0.7813,-0.3187784 -0.1959,-0.2139075 -0.2938,-0.4972659 -0.2938,-0.8500759 0,-0.3500297 0.097,-0.6319991 0.2896,-0.8459085 0.1931,-0.213906 0.4466,-0.32086 0.7605,-0.320862 0.3348,2e-6 0.5917,0.103484 0.7709,0.310444 0.1792,0.205576 0.2723,0.5049077 0.2792,0.8979969 m -0.4521,-0.220853 c -0.01,-0.2583549 -0.063,-0.4528165 -0.1646,-0.5833849 -0.1,-0.131955 -0.2445,-0.197933 -0.4334,-0.197935 -0.1764,2e-6 -0.3153,0.06598 -0.4167,0.197935 -0.1014,0.1319574 -0.1632,0.326419 -0.1854,0.5833849 l 1.2001,0" />
      <path
         inkscape:connector-curvature="0"
         id="path7875"
         d="m 1072.292,-8.9472535 0,-0.4687918 -0.4938,0 c -0.1903,1.2e-6 -0.332,0.040977 -0.425,0.1229276 -0.093,0.081953 -0.1396,0.2076583 -0.1396,0.377117 0,0.154181 0.047,0.276414 0.1416,0.3666994 0.095,0.090286 0.2223,0.1354289 0.3834,0.1354288 0.1597,10e-8 0.2882,-0.04931 0.3855,-0.1479299 0.099,-0.098619 0.1479,-0.2271031 0.1479,-0.3854511 m 0.3834,-0.6875613 0,1.1626037 0.3417,0 0,0.2208531 -0.7251,0 0,-0.2396047 c -0.085,0.102787 -0.1827,0.1784882 -0.2938,0.2271036 -0.1111,0.048615 -0.241,0.072923 -0.3896,0.072923 -0.2459,0 -0.441,-0.065284 -0.5855,-0.1958508 -0.1444,-0.1305669 -0.2167,-0.3069714 -0.2167,-0.5292139 0,-0.2291862 0.083,-0.4069797 0.248,-0.5333809 0.1653,-0.1263988 0.3986,-0.1895989 0.7,-0.1896002 l 0.5376,0 0,-0.152097 c 0,-0.1680688 -0.051,-0.2979411 -0.1542,-0.3896181 -0.1014,-0.09306 -0.2445,-0.139594 -0.4292,-0.139596 -0.1528,2e-6 -0.2743,0.03473 -0.3646,0.104176 -0.09,0.06945 -0.1466,0.17224 -0.1688,0.3083611 l -0.1979,0 0,-0.4479561 c 0.1333,-0.05695 0.2625,-0.09931 0.3875,-0.127095 0.1264,-0.02917 0.2493,-0.04375 0.3688,-0.04375 0.307,2e-6 0.5403,0.0764 0.7001,0.229187 0.1611,0.151404 0.2417,0.3722571 0.2417,0.6625591" />
    </g>
    <g
       transform="matrix(5.4516228,0,0,5.4516228,-5653.1909,801.67574)"
       id="text5177-8"
       style="font-style:normal;font-variant:normal;font-weight:normal;font-stretch:normal;font-size:4.26704741px;line-height:125%;font-family:Serif;-inkscape-font-specification:Serif;text-align:center;letter-spacing:0px;word-spacing:0px;text-anchor:middle;fill:#000000;fill-opacity:1;stroke:none">
      <path
         inkscape:connector-curvature="0"
         id="path7818"
         d="m 1050.9799,-67.424042 0,-0.220853 0.3958,0 0,-2.666904 -0.3958,0 0,-0.222937 2.5043,0 0,0.691728 -0.2562,0 0,-0.435455 -1.4293,0 0,1.04176 1.0188,0 0,-0.389619 0.2563,0 0,1.033426 -0.2563,0 0,-0.389618 -1.0188,0 0,1.302199 1.4626,0 0,-0.435455 0.2563,0 0,0.691728 -2.5377,0" />
      <path
         inkscape:connector-curvature="0"
         id="path7820"
         d="m 1055.1031,-68.776246 0.4647,-0.63964 -0.298,0 0,-0.222937 0.8522,0 0,0.222937 -0.2938,0 -0.5938,0.818823 0.6917,0.952168 0.2896,0 0,0.220853 -1.023,0 0,-0.220853 0.2813,0 -0.4813,-0.662559 -0.4834,0.662559 0.2876,0 0,0.220853 -0.8418,0 0,-0.220853 0.2938,0 0.6105,-0.841742 -0.673,-0.929249 -0.273,0 0,-0.222937 0.9897,0 0,0.222937 -0.2646,0 0.4646,0.63964" />
      <path
         inkscape:connector-curvature="0"
         id="path7822"
         d="m 1057.145,-68.640817 0,0.21877 c 0,0.266691 0.051,0.470181 0.1521,0.610471 0.1028,0.138901 0.2514,0.208352 0.4459,0.208352 0.1958,0 0.3437,-0.07848 0.4437,-0.235438 0.1014,-0.156958 0.1521,-0.388228 0.1521,-0.693812 0,-0.30697 -0.051,-0.538241 -0.1521,-0.693812 -0.1,-0.155567 -0.2479,-0.233352 -0.4437,-0.233354 -0.1945,2e-6 -0.3431,0.07015 -0.4459,0.210435 -0.1014,0.140292 -0.1521,0.343088 -0.1521,0.608388 m -0.3834,-0.775069 -0.3688,0 0,-0.222937 0.7522,0 0,0.345864 c 0.075,-0.138899 0.1701,-0.240991 0.2854,-0.306277 0.1167,-0.06667 0.2605,-0.100006 0.4313,-0.100009 0.2723,3e-6 0.4945,0.107651 0.6667,0.322946 0.1723,0.215298 0.2584,0.496573 0.2584,0.843825 0,0.347254 -0.086,0.629223 -0.2584,0.845909 -0.1722,0.215297 -0.3944,0.322945 -0.6667,0.322945 -0.1708,0 -0.3146,-0.03264 -0.4313,-0.09793 -0.1153,-0.06667 -0.2104,-0.169459 -0.2854,-0.308361 l 0,1.010507 0.3625,0 0,0.222936 -1.1147,0 0,-0.222936 0.3688,0 0,-2.656487" />
      <path
         inkscape:connector-curvature="0"
         id="path7824"
         d="m 1061.3162,-68.490804 -1.6522,0 0,0.01667 c 0,0.298638 0.056,0.524352 0.1687,0.677143 0.1125,0.151403 0.2785,0.227104 0.498,0.227104 0.1681,0 0.3056,-0.04375 0.4125,-0.131262 0.1084,-0.0889 0.1841,-0.220158 0.2271,-0.393785 l 0.3084,0 c -0.061,0.243078 -0.1743,0.425733 -0.3396,0.547966 -0.1639,0.122233 -0.3799,0.183349 -0.648,0.183349 -0.3236,0 -0.5841,-0.106259 -0.7813,-0.318778 -0.1959,-0.213908 -0.2938,-0.497266 -0.2938,-0.850076 0,-0.35003 0.097,-0.631999 0.2896,-0.845909 0.1931,-0.213906 0.4466,-0.320859 0.7605,-0.320862 0.3347,3e-6 0.5917,0.103484 0.7709,0.310445 0.1792,0.205575 0.2722,0.504907 0.2792,0.897996 m -0.4521,-0.220853 c -0.01,-0.258354 -0.063,-0.452816 -0.1646,-0.583385 -0.1,-0.131954 -0.2445,-0.197932 -0.4334,-0.197934 -0.1764,2e-6 -0.3153,0.06598 -0.4167,0.197934 -0.1014,0.131958 -0.1632,0.32642 -0.1854,0.583385 l 1.2001,0" />
      <path
         inkscape:connector-curvature="0"
         id="path7826"
         d="m 1063.7227,-68.088684 c -0.054,0.236132 -0.1584,0.416009 -0.3126,0.539631 -0.1542,0.123622 -0.3535,0.185433 -0.5979,0.185433 -0.3223,0 -0.5813,-0.106259 -0.7772,-0.318778 -0.1958,-0.213908 -0.2938,-0.497266 -0.2938,-0.850076 0,-0.354197 0.098,-0.636861 0.2938,-0.847992 0.1959,-0.212517 0.4549,-0.318776 0.7772,-0.318779 0.1402,3e-6 0.2798,0.01667 0.4187,0.05 0.1389,0.03195 0.2785,0.08126 0.4188,0.14793 l 0,0.566717 -0.2229,0 c -0.029,-0.19446 -0.093,-0.336139 -0.1917,-0.425038 -0.097,-0.0889 -0.2368,-0.133343 -0.4188,-0.133345 -0.2069,2e-6 -0.3632,0.08056 -0.4688,0.241688 -0.1055,0.159738 -0.1583,0.399342 -0.1583,0.718814 0,0.319474 0.052,0.559773 0.1562,0.720898 0.1056,0.161125 0.2626,0.241688 0.4709,0.241688 0.1653,0 0.2973,-0.04306 0.3959,-0.129178 0.099,-0.08612 0.166,-0.215991 0.2021,-0.389618 l 0.3084,0" />
      <path
         inkscape:connector-curvature="0"
         id="path7828"
         d="m 1064.381,-69.415886 -0.3375,0 0,-0.222937 0.3375,0 0,-0.687561 0.3855,0 0,0.687561 0.7209,0 0,0.222937 -0.7209,0 0,1.406375 c 0,0.187517 0.018,0.307667 0.054,0.360449 0.036,0.05278 0.1028,0.07917 0.2,0.07917 0.1,0 0.1729,-0.02917 0.2188,-0.08751 0.046,-0.05973 0.07,-0.155569 0.073,-0.287526 l 0.2896,0 c -0.011,0.201408 -0.066,0.348643 -0.1646,0.441707 -0.099,0.09306 -0.2486,0.139595 -0.45,0.139595 -0.2209,0 -0.3772,-0.04861 -0.4688,-0.145846 -0.092,-0.09862 -0.1376,-0.265301 -0.1376,-0.500045 l 0,-1.406375" />
      <path
         inkscape:connector-curvature="0"
         id="path7830"
         d="m 1067.9501,-68.490804 -1.6522,0 0,0.01667 c 0,0.298638 0.056,0.524352 0.1687,0.677143 0.1126,0.151403 0.2785,0.227104 0.498,0.227104 0.1681,0 0.3056,-0.04375 0.4125,-0.131262 0.1084,-0.0889 0.1841,-0.220158 0.2272,-0.393785 l 0.3083,0 c -0.061,0.243078 -0.1743,0.425733 -0.3396,0.547966 -0.1639,0.122233 -0.3799,0.183349 -0.648,0.183349 -0.3236,0 -0.5841,-0.106259 -0.7813,-0.318778 -0.1958,-0.213908 -0.2938,-0.497266 -0.2938,-0.850076 0,-0.35003 0.097,-0.631999 0.2896,-0.845909 0.1931,-0.213906 0.4466,-0.320859 0.7605,-0.320862 0.3348,3e-6 0.5917,0.103484 0.7709,0.310445 0.1792,0.205575 0.2723,0.504907 0.2792,0.897996 m -0.4521,-0.220853 c -0.01,-0.258354 -0.063,-0.452816 -0.1646,-0.583385 -0.1,-0.131954 -0.2445,-0.197932 -0.4334,-0.197934 -0.1764,2e-6 -0.3153,0.06598 -0.4167,0.197934 -0.1014,0.131958 -0.1632,0.32642 -0.1854,0.583385 l 1.2001,0" />
      <path
         inkscape:connector-curvature="0"
         id="path7832"
         d="m 1070.4024,-67.644895 0.3667,0 0,0.220853 -0.7501,0 0,-0.345864 c -0.075,0.138902 -0.1708,0.241688 -0.2875,0.308361 -0.1153,0.06528 -0.2583,0.09793 -0.4292,0.09793 -0.2722,0 -0.4952,-0.107648 -0.6688,-0.322945 -0.1722,-0.216686 -0.2583,-0.498655 -0.2583,-0.845909 0,-0.347252 0.086,-0.628527 0.2583,-0.843825 0.1722,-0.215295 0.3952,-0.322943 0.6688,-0.322946 0.1709,3e-6 0.3139,0.03334 0.4292,0.100009 0.1167,0.06529 0.2125,0.167378 0.2875,0.306277 l 0,-1.152186 -0.3625,0 0,-0.220853 0.7459,0 0,3.021103 m -0.3834,-0.777152 0,-0.21877 c 0,-0.2653 -0.051,-0.468096 -0.1541,-0.608388 -0.1014,-0.140288 -0.2494,-0.210433 -0.4438,-0.210435 -0.1973,2e-6 -0.3466,0.07779 -0.448,0.233354 -0.1,0.155571 -0.15,0.386842 -0.15,0.693812 0,0.305584 0.05,0.536854 0.15,0.693812 0.1014,0.156959 0.2507,0.235438 0.448,0.235438 0.1944,0 0.3424,-0.06945 0.4438,-0.208352 0.1028,-0.14029 0.1541,-0.34378 0.1541,-0.610471" />
      <path
         inkscape:connector-curvature="0"
         id="path7834"
         d="m 1050.6423,-64.082077 -0.3375,0 0,-0.222936 0.3375,0 0,-0.687562 0.3855,0 0,0.687562 0.7209,0 0,0.222936 -0.7209,0 0,1.406376 c 0,0.187517 0.018,0.307666 0.054,0.360448 0.036,0.05278 0.1028,0.07917 0.2001,0.07917 0.1,0 0.1729,-0.02917 0.2187,-0.08751 0.046,-0.05973 0.07,-0.155569 0.073,-0.287525 l 0.2896,0 c -0.011,0.201407 -0.066,0.348642 -0.1646,0.441706 -0.099,0.09306 -0.2487,0.139596 -0.4501,0.139596 -0.2208,0 -0.3771,-0.04862 -0.4688,-0.145847 -0.092,-0.09862 -0.1375,-0.265301 -0.1375,-0.500044 l 0,-1.406376" />
      <path
         inkscape:connector-curvature="0"
         id="path7836"
         d="m 1053.9384,-64.30918 0,0.554216 -0.2208,0 c -0.01,-0.109731 -0.037,-0.191682 -0.092,-0.245856 -0.054,-0.05417 -0.1333,-0.08125 -0.2375,-0.08126 -0.1889,2e-6 -0.3341,0.06529 -0.4355,0.195851 -0.1,0.130569 -0.15,0.318085 -0.15,0.56255 l 0,1.01259 0.4438,0 0,0.220854 -1.173,0 0,-0.220854 0.3459,0 0,-1.775158 -0.3667,0 0,-0.218769 0.75,0 0,0.393785 c 0.075,-0.154179 0.1716,-0.268078 0.2896,-0.341697 0.1181,-0.075 0.2619,-0.112508 0.4313,-0.112511 0.063,3e-6 0.1278,0.0049 0.1959,0.01458 0.069,0.0097 0.1424,0.02362 0.2187,0.04167" />
      <path
         inkscape:connector-curvature="0"
         id="path7838"
         d="m 1055.6386,-62.786128 0,-0.468792 -0.4938,0 c -0.1903,10e-7 -0.332,0.04098 -0.425,0.122928 -0.093,0.08195 -0.1396,0.207658 -0.1396,0.377117 0,0.154181 0.047,0.276414 0.1417,0.366699 0.094,0.09029 0.2222,0.135429 0.3833,0.135429 0.1598,0 0.2882,-0.04931 0.3855,-0.14793 0.099,-0.09862 0.1479,-0.227103 0.1479,-0.385451 m 0.3834,-0.687561 0,1.162603 0.3417,0 0,0.220854 -0.7251,0 0,-0.239605 c -0.085,0.102787 -0.1827,0.178488 -0.2938,0.227103 -0.1111,0.04862 -0.241,0.07292 -0.3896,0.07292 -0.2459,0 -0.441,-0.06528 -0.5855,-0.195851 -0.1444,-0.130567 -0.2166,-0.306972 -0.2166,-0.529214 0,-0.229186 0.083,-0.40698 0.2479,-0.533381 0.1653,-0.126399 0.3986,-0.189599 0.7001,-0.1896 l 0.5375,0 0,-0.152097 c 0,-0.168069 -0.051,-0.297942 -0.1542,-0.389618 -0.1014,-0.09306 -0.2444,-0.139594 -0.4292,-0.139596 -0.1528,2e-6 -0.2743,0.03473 -0.3646,0.104176 -0.09,0.06945 -0.1465,0.172239 -0.1688,0.308361 l -0.1979,0 0,-0.447957 c 0.1333,-0.05695 0.2625,-0.09931 0.3875,-0.127095 0.1264,-0.02917 0.2494,-0.04375 0.3688,-0.04375 0.307,3e-6 0.5403,0.0764 0.7001,0.229188 0.1611,0.151404 0.2417,0.372257 0.2417,0.662559" />
      <path
         inkscape:connector-curvature="0"
         id="path7840"
         d="m 1056.9095,-64.992575 c 0,-0.06389 0.023,-0.119452 0.069,-0.166681 0.047,-0.04722 0.1035,-0.07084 0.1688,-0.07084 0.064,3e-6 0.1187,0.02362 0.1646,0.07084 0.047,0.04723 0.071,0.10279 0.071,0.166681 0,0.06529 -0.023,0.120847 -0.069,0.166682 -0.044,0.04584 -0.1,0.06876 -0.1666,0.06876 -0.065,3e-6 -0.1216,-0.02292 -0.1688,-0.06876 -0.046,-0.04584 -0.069,-0.101395 -0.069,-0.166682 m 0.094,0.910498 -0.3625,0 0,-0.222936 0.7459,0 0,2.431467 c 0,0.227797 -0.068,0.406285 -0.2042,0.535464 -0.1347,0.130566 -0.3209,0.19585 -0.5584,0.195851 -0.1,-10e-7 -0.1952,-0.01181 -0.2854,-0.03542 -0.092,-0.02223 -0.1806,-0.05626 -0.2667,-0.102093 l 0,-0.45629 0.1979,0 c 0.01,0.133345 0.044,0.23127 0.1042,0.293776 0.058,0.06251 0.1444,0.09376 0.2583,0.09376 0.1264,0 0.2195,-0.04306 0.2792,-0.129178 0.061,-0.08473 0.092,-0.216686 0.092,-0.395868 l 0,-2.208531" />
      <path
         inkscape:connector-curvature="0"
         id="path7842"
         d="m 1060.1203,-63.156994 -1.6523,0 0,0.01667 c 0,0.298638 0.056,0.524353 0.1688,0.677144 0.1125,0.151402 0.2785,0.227103 0.4979,0.227103 0.1681,0 0.3056,-0.04375 0.4126,-0.131262 0.1083,-0.0889 0.184,-0.220158 0.2271,-0.393785 l 0.3083,0 c -0.061,0.243078 -0.1743,0.425733 -0.3396,0.547966 -0.1639,0.122233 -0.3799,0.18335 -0.6479,0.18335 -0.3237,0 -0.5841,-0.10626 -0.7814,-0.318779 -0.1958,-0.213907 -0.2937,-0.497266 -0.2937,-0.850076 0,-0.35003 0.097,-0.631999 0.2896,-0.845909 0.193,-0.213905 0.4465,-0.320859 0.7605,-0.320862 0.3347,3e-6 0.5917,0.103484 0.7709,0.310445 0.1791,0.205576 0.2722,0.504907 0.2792,0.897997 m -0.4522,-0.220853 c -0.01,-0.258355 -0.063,-0.452817 -0.1646,-0.583386 -0.1,-0.131954 -0.2444,-0.197932 -0.4333,-0.197934 -0.1764,2e-6 -0.3154,0.06598 -0.4167,0.197934 -0.1014,0.131958 -0.1633,0.32642 -0.1855,0.583386 l 1.2001,0" />
      <path
         inkscape:connector-curvature="0"
         id="path7844"
         d="m 1062.5267,-62.754875 c -0.054,0.236132 -0.1583,0.416009 -0.3125,0.539631 -0.1542,0.123622 -0.3535,0.185434 -0.598,0.185434 -0.3222,0 -0.5813,-0.10626 -0.7771,-0.318779 -0.1959,-0.213907 -0.2938,-0.497266 -0.2938,-0.850076 0,-0.354197 0.098,-0.63686 0.2938,-0.847992 0.1958,-0.212517 0.4549,-0.318776 0.7771,-0.318779 0.1403,3e-6 0.2799,0.01667 0.4188,0.05 0.1389,0.03195 0.2785,0.08126 0.4188,0.14793 l 0,0.566717 -0.2229,0 c -0.029,-0.19446 -0.093,-0.336139 -0.1917,-0.425038 -0.097,-0.08889 -0.2369,-0.133343 -0.4188,-0.133345 -0.207,2e-6 -0.3632,0.08056 -0.4688,0.241688 -0.1056,0.159738 -0.1584,0.399343 -0.1584,0.718814 0,0.319474 0.052,0.559773 0.1563,0.720898 0.1056,0.161126 0.2625,0.241688 0.4709,0.241688 0.1653,0 0.2972,-0.04306 0.3959,-0.129178 0.099,-0.08612 0.1659,-0.215991 0.2021,-0.389618 l 0.3083,0" />
      <path
         inkscape:connector-curvature="0"
         id="path7846"
         d="m 1063.1851,-64.082077 -0.3375,0 0,-0.222936 0.3375,0 0,-0.687562 0.3855,0 0,0.687562 0.7209,0 0,0.222936 -0.7209,0 0,1.406376 c 0,0.187517 0.018,0.307666 0.054,0.360448 0.036,0.05278 0.1028,0.07917 0.2,0.07917 0.1001,0 0.173,-0.02917 0.2188,-0.08751 0.046,-0.05973 0.07,-0.155569 0.073,-0.287525 l 0.2896,0 c -0.011,0.201407 -0.066,0.348642 -0.1645,0.441706 -0.099,0.09306 -0.2487,0.139596 -0.4501,0.139596 -0.2208,0 -0.3771,-0.04862 -0.4688,-0.145847 -0.092,-0.09862 -0.1375,-0.265301 -0.1375,-0.500044 l 0,-1.406376" />
      <path
         inkscape:connector-curvature="0"
         id="path7848"
         d="m 1065.7249,-62.236079 c 0.2056,0 0.3605,-0.08126 0.4646,-0.243772 0.1056,-0.162514 0.1584,-0.402118 0.1584,-0.718814 0,-0.316693 -0.053,-0.555603 -0.1584,-0.71673 -0.1041,-0.162513 -0.259,-0.24377 -0.4646,-0.243772 -0.2056,2e-6 -0.3611,0.08126 -0.4667,0.243772 -0.1042,0.161127 -0.1563,0.400037 -0.1563,0.71673 0,0.316696 0.053,0.5563 0.1584,0.718814 0.1056,0.162515 0.2604,0.243772 0.4646,0.243772 m 0,0.206269 c -0.3222,0 -0.5813,-0.10626 -0.7771,-0.318779 -0.1959,-0.213907 -0.2938,-0.497266 -0.2938,-0.850076 0,-0.352808 0.097,-0.635471 0.2917,-0.847992 0.1958,-0.212517 0.4556,-0.318776 0.7792,-0.318779 0.3237,3e-6 0.5827,0.106262 0.7772,0.318779 0.1958,0.212521 0.2937,0.495184 0.2937,0.847992 0,0.35281 -0.098,0.636169 -0.2937,0.850076 -0.1945,0.212519 -0.4535,0.318779 -0.7772,0.318779" />
      <path
         inkscape:connector-curvature="0"
         id="path7850"
         d="m 1069.0481,-64.30918 0,0.554216 -0.2208,0 c -0.01,-0.109731 -0.037,-0.191682 -0.092,-0.245856 -0.054,-0.05417 -0.1333,-0.08125 -0.2375,-0.08126 -0.1889,2e-6 -0.3341,0.06529 -0.4355,0.195851 -0.1,0.130569 -0.15,0.318085 -0.15,0.56255 l 0,1.01259 0.4438,0 0,0.220854 -1.173,0 0,-0.220854 0.3458,0 0,-1.775158 -0.3667,0 0,-0.218769 0.7501,0 0,0.393785 c 0.075,-0.154179 0.1716,-0.268078 0.2896,-0.341697 0.1181,-0.075 0.2618,-0.112508 0.4313,-0.112511 0.063,3e-6 0.1278,0.0049 0.1959,0.01458 0.069,0.0097 0.1423,0.02362 0.2187,0.04167" />
      <path
         inkscape:connector-curvature="0"
         id="path7852"
         d="m 1069.9711,-61.683946 0.1459,-0.368783 -0.8272,-2.029348 -0.2521,0 0,-0.222936 1.0189,0 0,0.222936 -0.3542,0 0.6229,1.523053 0.623,-1.523053 -0.3313,0 0,-0.222936 0.8313,0 0,0.222936 -0.2479,0 -1.0147,2.491889 c -0.069,0.172237 -0.1465,0.289609 -0.2312,0.352115 -0.085,0.06389 -0.2042,0.09584 -0.3584,0.09584 -0.065,-1e-6 -0.1327,-0.0056 -0.2021,-0.01667 -0.068,-0.01111 -0.1368,-0.02709 -0.2063,-0.04792 l 0,-0.422955 0.1959,0 c 0.01,0.09445 0.032,0.16182 0.071,0.202102 0.04,0.04167 0.1021,0.0625 0.1855,0.06251 0.076,-10e-7 0.1375,-0.02153 0.1833,-0.06459 0.047,-0.04167 0.096,-0.126401 0.1479,-0.254189" />
    </g>
    <g
       transform="matrix(5.4516228,0,0,5.4516228,-5653.1909,801.67574)"
       id="text5177-8-1"
       style="font-style:normal;font-variant:normal;font-weight:normal;font-stretch:normal;font-size:4.26704741px;line-height:125%;font-family:Serif;-inkscape-font-specification:Serif;letter-spacing:0px;word-spacing:0px;fill:#000000;fill-opacity:1;stroke:none">
      <path
         inkscape:connector-curvature="0"
         id="path7799"
         d="m 1100.1792,-88.358025 c 0.3403,0 0.5973,-0.116677 0.7709,-0.350032 0.1737,-0.234742 0.2605,-0.5813 0.2605,-1.039676 0,-0.459761 -0.087,-0.806319 -0.2605,-1.039676 -0.1736,-0.23474 -0.4306,-0.352112 -0.7709,-0.352115 -0.3417,3e-6 -0.5993,0.117375 -0.773,0.352115 -0.1736,0.233357 -0.2604,0.579915 -0.2604,1.039676 0,0.458376 0.087,0.804934 0.2604,1.039676 0.1737,0.233355 0.4313,0.350032 0.773,0.350032 m 0,0.222936 c -0.2111,0 -0.4056,-0.03473 -0.5834,-0.104176 -0.1764,-0.06945 -0.3319,-0.171543 -0.4667,-0.306277 -0.1555,-0.155569 -0.2715,-0.331973 -0.3479,-0.529214 -0.075,-0.197239 -0.1125,-0.421564 -0.1125,-0.672977 0,-0.251409 0.038,-0.475735 0.1125,-0.672976 0.076,-0.198627 0.1924,-0.375726 0.3479,-0.531298 0.1362,-0.13612 0.2917,-0.238213 0.4667,-0.306277 0.1751,-0.06945 0.3695,-0.104173 0.5834,-0.104176 0.4515,3e-6 0.8161,0.147933 1.0939,0.443789 0.2778,0.295863 0.4167,0.686175 0.4167,1.170938 0,0.248635 -0.038,0.47296 -0.1146,0.672977 -0.076,0.19863 -0.1924,0.375034 -0.348,0.529214 -0.1361,0.136123 -0.2917,0.23891 -0.4667,0.308361 -0.175,0.06806 -0.3687,0.102092 -0.5813,0.102092" />
      <path
         inkscape:connector-curvature="0"
         id="path7801"
         d="m 1104.1233,-88.860154 c -0.054,0.236133 -0.1583,0.41601 -0.3125,0.539632 -0.1542,0.123622 -0.3535,0.185433 -0.598,0.185433 -0.3222,0 -0.5813,-0.106259 -0.7771,-0.318778 -0.1959,-0.213908 -0.2938,-0.497266 -0.2938,-0.850076 0,-0.354197 0.098,-0.636861 0.2938,-0.847992 0.1958,-0.212517 0.4549,-0.318777 0.7771,-0.318779 0.1403,2e-6 0.2799,0.01667 0.4188,0.05 0.1389,0.03195 0.2785,0.08126 0.4188,0.147929 l 0,0.566718 -0.2229,0 c -0.029,-0.19446 -0.093,-0.33614 -0.1917,-0.425038 -0.097,-0.08889 -0.2368,-0.133343 -0.4188,-0.133345 -0.207,2e-6 -0.3632,0.08056 -0.4688,0.241688 -0.1056,0.159738 -0.1583,0.399342 -0.1583,0.718814 0,0.319474 0.052,0.559773 0.1562,0.720898 0.1056,0.161125 0.2626,0.241688 0.4709,0.241688 0.1653,0 0.2973,-0.04306 0.3959,-0.129178 0.099,-0.08612 0.166,-0.215991 0.2021,-0.389619 l 0.3083,0" />
      <path
         inkscape:connector-curvature="0"
         id="path7803"
         d="m 1106.5152,-88.860154 c -0.054,0.236133 -0.1583,0.41601 -0.3125,0.539632 -0.1542,0.123622 -0.3535,0.185433 -0.598,0.185433 -0.3222,0 -0.5813,-0.106259 -0.7771,-0.318778 -0.1959,-0.213908 -0.2938,-0.497266 -0.2938,-0.850076 0,-0.354197 0.098,-0.636861 0.2938,-0.847992 0.1958,-0.212517 0.4549,-0.318777 0.7771,-0.318779 0.1403,2e-6 0.2799,0.01667 0.4188,0.05 0.1389,0.03195 0.2785,0.08126 0.4188,0.147929 l 0,0.566718 -0.2229,0 c -0.029,-0.19446 -0.093,-0.33614 -0.1917,-0.425038 -0.097,-0.08889 -0.2369,-0.133343 -0.4188,-0.133345 -0.207,2e-6 -0.3632,0.08056 -0.4688,0.241688 -0.1056,0.159738 -0.1584,0.399342 -0.1584,0.718814 0,0.319474 0.052,0.559773 0.1563,0.720898 0.1056,0.161125 0.2625,0.241688 0.4709,0.241688 0.1653,0 0.2972,-0.04306 0.3959,-0.129178 0.099,-0.08612 0.1659,-0.215991 0.2021,-0.389619 l 0.3083,0" />
      <path
         inkscape:connector-curvature="0"
         id="path7805"
         d="m 1107.5882,-88.416364 0.3626,0 0,0.220853 -1.1147,0 0,-0.220853 0.3688,0 0,-2.80025 -0.3688,0 0,-0.220853 0.7521,0 0,3.021103" />
      <path
         inkscape:connector-curvature="0"
         id="path7807"
         d="m 1109.5905,-90.410292 0.7167,0 0,1.993928 0.3626,0 0,0.220853 -0.7459,0 0,-0.391701 c -0.071,0.147235 -0.1626,0.259745 -0.2751,0.33753 -0.1125,0.0764 -0.2431,0.114593 -0.3917,0.114593 -0.2458,0 -0.4271,-0.06945 -0.5438,-0.208352 -0.1153,-0.14029 -0.1729,-0.359754 -0.1729,-0.658392 l 0,-1.185522 -0.3459,0 0,-0.222937 0.7313,0 0,1.289699 c 0,0.269469 0.033,0.454207 0.098,0.554216 0.067,0.100009 0.1847,0.150013 0.3542,0.150013 0.1778,0 0.3132,-0.06528 0.4063,-0.195851 0.093,-0.130566 0.1396,-0.320166 0.1396,-0.5688 l 0,-1.00634 -0.3334,0 0,-0.222937" />
      <path
         inkscape:connector-curvature="0"
         id="path7809"
         d="m 1111.0698,-88.318438 0,-0.516713 0.2208,0 c 0.01,0.165293 0.057,0.288915 0.1542,0.370866 0.099,0.08195 0.2438,0.122928 0.4355,0.122928 0.1722,0 0.3035,-0.03195 0.3938,-0.09584 0.09,-0.06528 0.1354,-0.159736 0.1354,-0.283359 0,-0.09723 -0.033,-0.175709 -0.1,-0.235437 -0.065,-0.05973 -0.2042,-0.123622 -0.4167,-0.191684 l -0.2771,-0.09376 c -0.1903,-0.06112 -0.3285,-0.137511 -0.4147,-0.229187 -0.085,-0.09167 -0.127,-0.20835 -0.127,-0.350031 0,-0.202794 0.074,-0.361836 0.2229,-0.477126 0.1486,-0.115286 0.3542,-0.17293 0.6167,-0.172932 0.1167,2e-6 0.2396,0.01528 0.3688,0.04584 0.1292,0.03056 0.2625,0.07501 0.4,0.133345 l 0,0.483376 -0.2208,0 c -0.01,-0.143066 -0.056,-0.254882 -0.15,-0.335446 -0.094,-0.08056 -0.223,-0.120842 -0.3855,-0.120844 -0.1611,2e-6 -0.2833,0.02848 -0.3667,0.08542 -0.082,0.05695 -0.1229,0.142375 -0.1229,0.256273 0,0.09306 0.031,0.168072 0.094,0.22502 0.063,0.05556 0.1876,0.112511 0.3751,0.170848 l 0.3042,0.09376 c 0.2097,0.06528 0.3604,0.147236 0.4521,0.245855 0.093,0.09723 0.1396,0.222937 0.1396,0.377117 0,0.209741 -0.081,0.375034 -0.2417,0.495878 -0.1597,0.119455 -0.3806,0.179182 -0.6626,0.179182 -0.143,0 -0.2826,-0.01528 -0.4187,-0.04584 -0.1362,-0.03056 -0.2723,-0.0764 -0.4084,-0.137512" />
      <path
         inkscape:connector-curvature="0"
         id="path7811"
         d="m 1113.4367,-91.097853 c 0,-0.06389 0.023,-0.119452 0.069,-0.166682 0.047,-0.04722 0.1035,-0.07084 0.1688,-0.07084 0.064,3e-6 0.1187,0.02362 0.1646,0.07084 0.047,0.04723 0.071,0.10279 0.071,0.166682 0,0.06529 -0.023,0.120847 -0.069,0.166681 -0.046,0.04584 -0.1014,0.06876 -0.1667,0.06876 -0.065,2e-6 -0.1216,-0.02292 -0.1688,-0.06876 -0.046,-0.04583 -0.069,-0.101395 -0.069,-0.166681 m 0.4896,2.681489 0.3625,0 0,0.220853 -1.1126,0 0,-0.220853 0.3667,0 0,-1.770991 -0.3667,0 0,-0.222937 0.7501,0 0,1.993928" />
      <path
         inkscape:connector-curvature="0"
         id="path7813"
         d="m 1115.6723,-88.341357 c 0.2056,0 0.3604,-0.08126 0.4646,-0.243772 0.1056,-0.162514 0.1584,-0.402118 0.1584,-0.718814 0,-0.316694 -0.053,-0.555604 -0.1584,-0.716731 -0.1042,-0.162512 -0.259,-0.243769 -0.4646,-0.243771 -0.2056,2e-6 -0.3612,0.08126 -0.4667,0.243771 -0.1042,0.161127 -0.1563,0.400037 -0.1563,0.716731 0,0.316696 0.053,0.5563 0.1584,0.718814 0.1055,0.162515 0.2604,0.243772 0.4646,0.243772 m 0,0.206268 c -0.3223,0 -0.5813,-0.106259 -0.7772,-0.318778 -0.1958,-0.213908 -0.2937,-0.497266 -0.2937,-0.850076 0,-0.352808 0.097,-0.635472 0.2916,-0.847992 0.1959,-0.212517 0.4556,-0.318777 0.7793,-0.318779 0.3236,2e-6 0.5827,0.106262 0.7771,0.318779 0.1959,0.21252 0.2938,0.495184 0.2938,0.847992 0,0.35281 -0.098,0.636168 -0.2938,0.850076 -0.1944,0.212519 -0.4535,0.318778 -0.7771,0.318778" />
      <path
         inkscape:connector-curvature="0"
         id="path7815"
         d="m 1117.1307,-88.195511 0,-0.220853 0.3459,0 0,-1.770991 -0.3667,0 0,-0.222937 0.7501,0 0,0.393785 c 0.071,-0.150011 0.1625,-0.263216 0.275,-0.339613 0.1139,-0.07639 0.2459,-0.114592 0.3959,-0.114594 0.2444,2e-6 0.4243,0.07015 0.5396,0.210436 0.1153,0.140292 0.1729,0.359061 0.1729,0.656308 l 0,1.187606 0.3417,0 0,0.220853 -1.0584,0 0,-0.220853 0.3313,0 0,-1.066762 c 0,-0.270856 -0.033,-0.456289 -0.1,-0.556299 -0.067,-0.101396 -0.1841,-0.152095 -0.3521,-0.152097 -0.1778,2e-6 -0.3133,0.06529 -0.4063,0.195851 -0.093,0.129179 -0.1396,0.318085 -0.1396,0.566717 l 0,1.01259 0.3333,0 0,0.220853 -1.0626,0" />
    </g>
    <path
       sodipodi:nodetypes="cc"
       inkscape:connector-curvature="0"
       id="path5244"
       d="M 386.73408,333.12464 375.4285,376.45659"
       style="fill:none;stroke:#000000;stroke-width:1.45389593px;stroke-linecap:butt;stroke-linejoin:miter;stroke-opacity:1" />
    <path
       sodipodi:nodetypes="cc"
       inkscape:connector-curvature="0"
       id="path5244-8"
       d="m 157.3963,476.5697 150.95108,31.80652"
       style="fill:none;stroke:#000000;stroke-width:1.45389593px;stroke-linecap:butt;stroke-linejoin:miter;stroke-opacity:1" />
    <path
       sodipodi:nodetypes="cc"
       inkscape:connector-curvature="0"
       id="path5244-8-1"
       d="m 126.94026,730.65911 28.03934,-41.5399"
       style="fill:none;stroke:#000000;stroke-width:1.45389593px;stroke-linecap:butt;stroke-linejoin:miter;stroke-opacity:1" />
    <path
       sodipodi:nodetypes="csccc"
       inkscape:connector-curvature="0"
       id="path3009"
       d="m 587.16845,313.16036 c -93.31162,49.32601 -125.71552,68.05386 -182.71551,113.66203 -12.46568,9.9744 -42.19174,35.96654 -42.19174,35.96654 l 69.72953,55.05686 c -39.68564,41.0118 -48.24687,55.58922 -81.75308,97.66124"
       style="fill:none;stroke:#000000;stroke-width:4.36168766;stroke-linecap:butt;stroke-linejoin:miter;stroke-miterlimit:4;stroke-dasharray:4.36168725, 8.7233745;stroke-dashoffset:0;stroke-opacity:1" />
    <g
       transform="matrix(5.4516228,0,0,5.4516228,-5653.1909,801.67574)"
       id="text5177-8-1-3"
       style="font-style:normal;font-variant:normal;font-weight:normal;font-stretch:normal;font-size:5.3338089px;line-height:125%;font-family:Serif;-inkscape-font-specification:Serif;letter-spacing:0px;word-spacing:0px;fill:#000000;fill-opacity:1;stroke:none">
      <path
         inkscape:connector-curvature="0"
         id="path7754"
         style="font-size:4.26704741px;text-align:center;text-anchor:middle"
         d="m 1126.9032,-62.778069 0,-0.220853 0.3979,0 0,-2.641902 -0.9146,0 0,0.48546 -0.2563,0 0,-0.733399 2.7628,0 0,0.733399 -0.2563,0 0,-0.48546 -0.9147,0 0,2.641902 0.398,0 0,0.220853 -1.2168,0" />
      <path
         inkscape:connector-curvature="0"
         id="path7756"
         style="font-size:4.26704741px;text-align:center;text-anchor:middle"
         d="m 1130.9786,-64.997017 0,0.554217 -0.2209,0 c -0.01,-0.109731 -0.038,-0.191682 -0.092,-0.245856 -0.054,-0.05417 -0.1333,-0.08125 -0.2375,-0.08126 -0.1889,2e-6 -0.3341,0.06529 -0.4355,0.195851 -0.1,0.130569 -0.15,0.318085 -0.15,0.56255 l 0,1.01259 0.4438,0 0,0.220853 -1.173,0 0,-0.220853 0.3459,0 0,-1.775158 -0.3667,0 0,-0.218769 0.75,0 0,0.393785 c 0.075,-0.154179 0.1716,-0.268078 0.2896,-0.341698 0.1181,-0.075 0.2619,-0.112507 0.4313,-0.11251 0.063,3e-6 0.1278,0.0049 0.1959,0.01459 0.069,0.0097 0.1424,0.02362 0.2188,0.04167" />
      <path
         inkscape:connector-curvature="0"
         id="path7758"
         style="font-size:4.26704741px;text-align:center;text-anchor:middle"
         d="m 1132.6787,-63.473964 0,-0.468792 -0.4938,0 c -0.1903,1e-6 -0.332,0.04098 -0.425,0.122928 -0.093,0.08195 -0.1396,0.207658 -0.1396,0.377117 0,0.154181 0.047,0.276414 0.1417,0.366699 0.094,0.09029 0.2222,0.135429 0.3833,0.135429 0.1598,0 0.2882,-0.04931 0.3855,-0.14793 0.099,-0.09862 0.1479,-0.227103 0.1479,-0.385451 m 0.3834,-0.687561 0,1.162603 0.3417,0 0,0.220853 -0.7251,0 0,-0.239604 c -0.085,0.102787 -0.1827,0.178488 -0.2938,0.227103 -0.1111,0.04862 -0.241,0.07292 -0.3896,0.07292 -0.2458,-10e-7 -0.441,-0.06528 -0.5855,-0.195851 -0.1444,-0.130567 -0.2166,-0.306972 -0.2166,-0.529214 0,-0.229186 0.083,-0.40698 0.2479,-0.533381 0.1653,-0.126399 0.3986,-0.189599 0.7001,-0.1896 l 0.5375,0 0,-0.152097 c 0,-0.168069 -0.051,-0.297942 -0.1542,-0.389618 -0.1014,-0.09306 -0.2444,-0.139594 -0.4292,-0.139596 -0.1528,2e-6 -0.2743,0.03473 -0.3646,0.104176 -0.09,0.06945 -0.1465,0.172239 -0.1688,0.308361 l -0.1979,0 0,-0.447957 c 0.1334,-0.05695 0.2625,-0.09931 0.3875,-0.127095 0.1264,-0.02917 0.2494,-0.04375 0.3688,-0.04375 0.307,3e-6 0.5403,0.0764 0.7001,0.229188 0.1611,0.151404 0.2417,0.372257 0.2417,0.662559" />
      <path
         inkscape:connector-curvature="0"
         id="path7760"
         style="font-size:4.26704741px;text-align:center;text-anchor:middle"
         d="m 1133.9497,-65.680411 c 0,-0.06389 0.023,-0.119452 0.069,-0.166681 0.047,-0.04722 0.1035,-0.07084 0.1688,-0.07084 0.064,3e-6 0.1187,0.02362 0.1646,0.07084 0.047,0.04723 0.071,0.10279 0.071,0.166681 0,0.06529 -0.023,0.120847 -0.069,0.166682 -0.044,0.04584 -0.1001,0.06876 -0.1667,0.06876 -0.065,2e-6 -0.1216,-0.02292 -0.1688,-0.06876 -0.046,-0.04583 -0.069,-0.101395 -0.069,-0.166682 m 0.094,0.910498 -0.3625,0 0,-0.222936 0.7459,0 0,2.431466 c 0,0.227798 -0.068,0.406286 -0.2042,0.535465 -0.1347,0.130566 -0.3209,0.19585 -0.5584,0.195851 -0.1,-10e-7 -0.1951,-0.01181 -0.2854,-0.03542 -0.092,-0.02222 -0.1806,-0.05626 -0.2667,-0.102093 l 0,-0.45629 0.1979,0 c 0.01,0.133344 0.044,0.23127 0.1042,0.293776 0.058,0.06251 0.1444,0.09376 0.2583,0.09376 0.1264,0 0.2195,-0.04306 0.2792,-0.129178 0.061,-0.08473 0.092,-0.216686 0.092,-0.395869 l 0,-2.20853" />
      <path
         inkscape:connector-curvature="0"
         id="path7762"
         style="font-size:4.26704741px;text-align:center;text-anchor:middle"
         d="m 1137.1604,-63.84483 -1.6523,0 0,0.01667 c 0,0.298638 0.056,0.524353 0.1688,0.677144 0.1125,0.151402 0.2785,0.227103 0.498,0.227103 0.168,0 0.3055,-0.04375 0.4125,-0.131262 0.1083,-0.0889 0.184,-0.220158 0.2271,-0.393785 l 0.3084,0 c -0.061,0.243078 -0.1744,0.425733 -0.3397,0.547966 -0.1639,0.122233 -0.3799,0.183349 -0.6479,0.18335 -0.3237,-10e-7 -0.5841,-0.10626 -0.7814,-0.318779 -0.1958,-0.213907 -0.2937,-0.497266 -0.2937,-0.850076 0,-0.35003 0.097,-0.631999 0.2896,-0.845909 0.1931,-0.213905 0.4465,-0.320859 0.7605,-0.320862 0.3347,3e-6 0.5917,0.103484 0.7709,0.310445 0.1791,0.205575 0.2722,0.504907 0.2792,0.897997 m -0.4522,-0.220853 c -0.01,-0.258355 -0.063,-0.452817 -0.1646,-0.583386 -0.1,-0.131954 -0.2444,-0.197932 -0.4333,-0.197934 -0.1764,2e-6 -0.3153,0.06598 -0.4167,0.197934 -0.1014,0.131958 -0.1633,0.32642 -0.1855,0.583386 l 1.2001,0" />
      <path
         inkscape:connector-curvature="0"
         id="path7764"
         style="font-size:4.26704741px;text-align:center;text-anchor:middle"
         d="m 1139.5668,-63.442711 c -0.054,0.236132 -0.1583,0.416009 -0.3125,0.539631 -0.1542,0.123622 -0.3535,0.185433 -0.598,0.185434 -0.3222,-10e-7 -0.5813,-0.10626 -0.7771,-0.318779 -0.1959,-0.213907 -0.2938,-0.497266 -0.2938,-0.850076 0,-0.354197 0.098,-0.63686 0.2938,-0.847992 0.1958,-0.212517 0.4549,-0.318776 0.7771,-0.318779 0.1403,3e-6 0.2799,0.01667 0.4188,0.05001 0.1389,0.03195 0.2785,0.08126 0.4188,0.14793 l 0,0.566717 -0.2229,0 c -0.029,-0.19446 -0.093,-0.336139 -0.1917,-0.425038 -0.097,-0.0889 -0.2369,-0.133343 -0.4188,-0.133345 -0.207,2e-6 -0.3632,0.08057 -0.4688,0.241688 -0.1056,0.159738 -0.1584,0.399343 -0.1583,0.718814 -10e-5,0.319474 0.052,0.559773 0.1562,0.720898 0.1056,0.161126 0.2625,0.241688 0.4709,0.241688 0.1653,0 0.2972,-0.04306 0.3959,-0.129178 0.099,-0.08612 0.1659,-0.215991 0.2021,-0.389618 l 0.3083,0" />
      <path
         inkscape:connector-curvature="0"
         id="path7766"
         style="font-size:4.26704741px;text-align:center;text-anchor:middle"
         d="m 1140.2252,-64.769913 -0.3375,0 0,-0.222936 0.3375,0 0,-0.687562 0.3855,0 0,0.687562 0.7209,0 0,0.222936 -0.7209,0 0,1.406376 c 0,0.187517 0.018,0.307666 0.054,0.360448 0.036,0.05278 0.1028,0.07917 0.2001,0.07917 0.1,0 0.1729,-0.02917 0.2187,-0.08751 0.046,-0.05973 0.07,-0.155569 0.073,-0.287525 l 0.2897,0 c -0.011,0.201407 -0.066,0.348642 -0.1646,0.441706 -0.099,0.09306 -0.2487,0.139595 -0.4501,0.139596 -0.2208,-10e-7 -0.3771,-0.04862 -0.4688,-0.145847 -0.092,-0.09862 -0.1375,-0.265301 -0.1375,-0.500044 l 0,-1.406376" />
      <path
         inkscape:connector-curvature="0"
         id="path7768"
         style="font-size:4.26704741px;text-align:center;text-anchor:middle"
         d="m 1142.765,-62.923915 c 0.2056,0 0.3605,-0.08126 0.4646,-0.243772 0.1056,-0.162514 0.1584,-0.402118 0.1584,-0.718814 0,-0.316693 -0.053,-0.555603 -0.1584,-0.71673 -0.1041,-0.162513 -0.259,-0.24377 -0.4646,-0.243772 -0.2056,2e-6 -0.3611,0.08126 -0.4667,0.243772 -0.1042,0.161127 -0.1563,0.400037 -0.1563,0.71673 0,0.316696 0.053,0.5563 0.1584,0.718814 0.1056,0.162515 0.2604,0.243772 0.4646,0.243772 m 0,0.206269 c -0.3222,-10e-7 -0.5813,-0.10626 -0.7771,-0.318779 -0.1959,-0.213907 -0.2938,-0.497266 -0.2938,-0.850076 0,-0.352808 0.097,-0.635471 0.2917,-0.847992 0.1958,-0.212517 0.4556,-0.318776 0.7792,-0.318779 0.3237,3e-6 0.5827,0.106262 0.7772,0.318779 0.1958,0.212521 0.2937,0.495184 0.2938,0.847992 -10e-5,0.35281 -0.098,0.636169 -0.2938,0.850076 -0.1945,0.212519 -0.4535,0.318778 -0.7772,0.318779" />
      <path
         inkscape:connector-curvature="0"
         id="path7770"
         style="font-size:4.26704741px;text-align:center;text-anchor:middle"
         d="m 1146.0882,-64.997017 0,0.554217 -0.2208,0 c -0.01,-0.109731 -0.038,-0.191682 -0.092,-0.245856 -0.054,-0.05417 -0.1333,-0.08125 -0.2375,-0.08126 -0.1889,2e-6 -0.3341,0.06529 -0.4355,0.195851 -0.1,0.130569 -0.15,0.318085 -0.15,0.56255 l 0,1.01259 0.4438,0 0,0.220853 -1.173,0 0,-0.220853 0.3459,0 0,-1.775158 -0.3667,0 0,-0.218769 0.75,0 0,0.393785 c 0.075,-0.154179 0.1716,-0.268078 0.2896,-0.341698 0.1181,-0.075 0.2619,-0.112507 0.4313,-0.11251 0.063,3e-6 0.1278,0.0049 0.1959,0.01459 0.069,0.0097 0.1423,0.02362 0.2187,0.04167" />
      <path
         inkscape:connector-curvature="0"
         id="path7772"
         style="font-size:4.26704741px;text-align:center;text-anchor:middle"
         d="m 1147.0112,-62.371782 0.1459,-0.368783 -0.8272,-2.029348 -0.2521,0 0,-0.222936 1.0189,0 0,0.222936 -0.3542,0 0.6229,1.523053 0.623,-1.523053 -0.3313,0 0,-0.222936 0.8314,0 0,0.222936 -0.248,0 -1.0147,2.491889 c -0.069,0.172237 -0.1465,0.289608 -0.2312,0.352115 -0.085,0.06389 -0.2042,0.09584 -0.3584,0.09584 -0.065,-10e-7 -0.1326,-0.0056 -0.2021,-0.01667 -0.068,-0.01111 -0.1368,-0.02709 -0.2063,-0.04792 l 0,-0.422955 0.1959,0 c 0.01,0.09445 0.032,0.16182 0.071,0.202102 0.04,0.04167 0.1021,0.0625 0.1855,0.06251 0.076,-10e-7 0.1375,-0.02153 0.1833,-0.06459 0.047,-0.04167 0.097,-0.126401 0.1479,-0.254189" />
      <path
         inkscape:connector-curvature="0"
         id="path7774"
         style="font-size:4.26704741px;text-align:center;text-anchor:middle"
         d="m 1125.253,-59.227752 c 0.074,-0.162512 0.1674,-0.284745 0.2813,-0.366699 0.1153,-0.08334 0.2493,-0.125009 0.4021,-0.125011 0.232,2e-6 0.4049,0.07223 0.5188,0.216686 0.1139,0.14307 0.1709,0.359756 0.1709,0.650058 l 0,1.187606 0.3458,0 0,0.220853 -1.0625,0 0,-0.220853 0.3333,0 0,-1.143852 c 0,-0.226408 -0.033,-0.387533 -0.1,-0.483377 -0.067,-0.09584 -0.1771,-0.143761 -0.3313,-0.143763 -0.1708,2e-6 -0.3014,0.06459 -0.3917,0.193768 -0.089,0.129179 -0.1333,0.317391 -0.1333,0.564633 l 0,1.012591 0.3333,0 0,0.220853 -1.0501,0 0,-0.220853 0.3334,0 0,-1.158437 c 0,-0.220851 -0.033,-0.37781 -0.1,-0.470875 -0.067,-0.09445 -0.1771,-0.141678 -0.3313,-0.14168 -0.1708,2e-6 -0.3014,0.06459 -0.3917,0.193768 -0.089,0.129179 -0.1333,0.317391 -0.1333,0.564633 l 0,1.012591 0.3333,0 0,0.220853 -1.0626,0 0,-0.220853 0.3459,0 0,-1.775159 -0.3667,0 0,-0.218769 0.7501,0 0,0.393785 c 0.071,-0.147233 0.1611,-0.259743 0.2708,-0.33753 0.1098,-0.07778 0.2341,-0.116675 0.373,-0.116677 0.1722,2e-6 0.316,0.04306 0.4313,0.129178 0.1153,0.08473 0.1923,0.205576 0.2312,0.362532" />
      <path
         inkscape:connector-curvature="0"
         id="path7776"
         style="font-size:4.26704741px;text-align:center;text-anchor:middle"
         d="m 1128.7909,-58.140155 0,-0.468792 -0.4938,0 c -0.1903,2e-6 -0.332,0.04098 -0.4251,0.122928 -0.093,0.08195 -0.1396,0.207658 -0.1396,0.377117 0,0.154181 0.047,0.276414 0.1417,0.366699 0.094,0.09029 0.2223,0.135429 0.3834,0.135429 0.1597,0 0.2882,-0.04931 0.3854,-0.14793 0.099,-0.09862 0.148,-0.227103 0.148,-0.385451 m 0.3833,-0.687561 0,1.162604 0.3417,0 0,0.220853 -0.725,0 0,-0.239605 c -0.085,0.102787 -0.1827,0.178488 -0.2938,0.227104 -0.1111,0.04862 -0.241,0.07292 -0.3896,0.07292 -0.2459,0 -0.441,-0.06528 -0.5855,-0.195851 -0.1445,-0.130567 -0.2167,-0.306971 -0.2167,-0.529214 0,-0.229186 0.083,-0.40698 0.2479,-0.533381 0.1653,-0.126399 0.3987,-0.189599 0.7001,-0.1896 l 0.5376,0 0,-0.152097 c 0,-0.168069 -0.051,-0.297941 -0.1542,-0.389618 -0.1014,-0.09306 -0.2445,-0.139594 -0.4292,-0.139596 -0.1528,2e-6 -0.2744,0.03473 -0.3646,0.104176 -0.09,0.06945 -0.1466,0.172239 -0.1688,0.308361 l -0.1979,0 0,-0.447957 c 0.1333,-0.05695 0.2625,-0.09931 0.3875,-0.127094 0.1264,-0.02917 0.2493,-0.04375 0.3688,-0.04375 0.3069,2e-6 0.5403,0.0764 0.7,0.229187 0.1612,0.151404 0.2417,0.372257 0.2417,0.662559" />
      <path
         inkscape:connector-curvature="0"
         id="path7778"
         style="font-size:4.26704741px;text-align:center;text-anchor:middle"
         d="m 1129.8097,-57.444259 0,-0.220853 0.3459,0 0,-1.770992 -0.3667,0 0,-0.222936 0.75,0 0,0.393785 c 0.071,-0.150012 0.1625,-0.263216 0.2751,-0.339614 0.1139,-0.07639 0.2458,-0.114591 0.3958,-0.114593 0.2445,2e-6 0.4244,0.07015 0.5397,0.210435 0.1152,0.140292 0.1729,0.359062 0.1729,0.656309 l 0,1.187606 0.3417,0 0,0.220853 -1.0584,0 0,-0.220853 0.3312,0 0,-1.066762 c 0,-0.270856 -0.033,-0.456289 -0.1,-0.5563 -0.067,-0.101396 -0.184,-0.152095 -0.3521,-0.152097 -0.1778,2e-6 -0.3132,0.06529 -0.4063,0.195851 -0.093,0.12918 -0.1396,0.318086 -0.1396,0.566717 l 0,1.012591 0.3334,0 0,0.220853 -1.0626,0" />
      <path
         inkscape:connector-curvature="0"
         id="path7780"
         style="font-size:4.26704741px;text-align:center;text-anchor:middle"
         d="m 1132.7996,-60.346602 c 0,-0.06389 0.023,-0.119452 0.069,-0.166681 0.047,-0.04722 0.1035,-0.07084 0.1688,-0.07084 0.064,3e-6 0.1187,0.02362 0.1646,0.07084 0.047,0.04723 0.071,0.10279 0.071,0.166681 0,0.06529 -0.023,0.120847 -0.069,0.166682 -0.046,0.04584 -0.1014,0.06876 -0.1667,0.06876 -0.065,3e-6 -0.1216,-0.02292 -0.1688,-0.06876 -0.046,-0.04583 -0.069,-0.101395 -0.069,-0.166682 m 0.4896,2.68149 0.3625,0 0,0.220853 -1.1126,0 0,-0.220853 0.3667,0 0,-1.770992 -0.3667,0 0,-0.222936 0.7501,0 0,1.993928" />
      <path
         inkscape:connector-curvature="0"
         id="path7782"
         style="font-size:4.26704741px;text-align:center;text-anchor:middle"
         d="m 1134.6268,-58.661035 0,0.21877 c 0,0.266691 0.051,0.470181 0.1521,0.610471 0.1028,0.138902 0.2514,0.208352 0.4459,0.208352 0.1958,0 0.3437,-0.07848 0.4438,-0.235438 0.1014,-0.156957 0.1521,-0.388228 0.1521,-0.693812 0,-0.30697 -0.051,-0.53824 -0.1521,-0.693811 -0.1001,-0.155568 -0.248,-0.233353 -0.4438,-0.233355 -0.1945,2e-6 -0.3431,0.07015 -0.4459,0.210436 -0.1014,0.140292 -0.1521,0.343088 -0.1521,0.608387 m -0.3834,-0.775069 -0.3688,0 0,-0.222936 0.7522,0 0,0.345864 c 0.075,-0.138899 0.1702,-0.240992 0.2854,-0.306277 0.1167,-0.06667 0.2605,-0.100007 0.4313,-0.100009 0.2723,2e-6 0.4945,0.10765 0.6668,0.322945 0.1722,0.215299 0.2583,0.496574 0.2583,0.843825 0,0.347254 -0.086,0.629224 -0.2583,0.845909 -0.1723,0.215297 -0.3945,0.322946 -0.6668,0.322946 -0.1708,0 -0.3146,-0.03264 -0.4313,-0.09793 -0.1152,-0.06667 -0.2104,-0.169459 -0.2854,-0.30836 l 0,1.010506 0.3625,0 0,0.222937 -1.1147,0 0,-0.222937 0.3688,0 0,-2.656487" />
      <path
         inkscape:connector-curvature="0"
         id="path7784"
         style="font-size:4.26704741px;text-align:center;text-anchor:middle"
         d="m 1137.9958,-59.65904 0.7168,0 0,1.993928 0.3625,0 0,0.220853 -0.7459,0 0,-0.391702 c -0.071,0.147236 -0.1625,0.259746 -0.275,0.33753 -0.1125,0.0764 -0.2431,0.114594 -0.3917,0.114594 -0.2459,0 -0.4271,-0.06945 -0.5438,-0.208352 -0.1153,-0.14029 -0.1729,-0.359754 -0.1729,-0.658392 l 0,-1.185523 -0.3459,0 0,-0.222936 0.7313,0 0,1.289698 c 0,0.269469 0.033,0.454208 0.098,0.554216 0.067,0.100009 0.1848,0.150014 0.3542,0.150014 0.1778,0 0.3132,-0.06528 0.4063,-0.195851 0.093,-0.130567 0.1396,-0.320167 0.1396,-0.568801 l 0,-1.00634 -0.3334,0 0,-0.222936" />
      <path
         inkscape:connector-curvature="0"
         id="path7786"
         style="font-size:4.26704741px;text-align:center;text-anchor:middle"
         d="m 1140.1106,-57.665112 0.3626,0 0,0.220853 -1.1147,0 0,-0.220853 0.3688,0 0,-2.80025 -0.3688,0 0,-0.220853 0.7521,0 0,3.021103" />
      <path
         inkscape:connector-curvature="0"
         id="path7788"
         style="font-size:4.26704741px;text-align:center;text-anchor:middle"
         d="m 1142.3004,-58.140155 0,-0.468792 -0.4938,0 c -0.1903,2e-6 -0.332,0.04098 -0.425,0.122928 -0.093,0.08195 -0.1396,0.207658 -0.1396,0.377117 0,0.154181 0.047,0.276414 0.1416,0.366699 0.095,0.09029 0.2223,0.135429 0.3834,0.135429 0.1598,0 0.2882,-0.04931 0.3855,-0.14793 0.099,-0.09862 0.1479,-0.227103 0.1479,-0.385451 m 0.3834,-0.687561 0,1.162604 0.3417,0 0,0.220853 -0.7251,0 0,-0.239605 c -0.085,0.102787 -0.1827,0.178488 -0.2938,0.227104 -0.1111,0.04862 -0.241,0.07292 -0.3896,0.07292 -0.2459,0 -0.441,-0.06528 -0.5855,-0.195851 -0.1444,-0.130567 -0.2167,-0.306971 -0.2167,-0.529214 0,-0.229186 0.083,-0.40698 0.248,-0.533381 0.1653,-0.126399 0.3986,-0.189599 0.7001,-0.1896 l 0.5375,0 0,-0.152097 c 0,-0.168069 -0.051,-0.297941 -0.1542,-0.389618 -0.1014,-0.09306 -0.2444,-0.139594 -0.4292,-0.139596 -0.1528,2e-6 -0.2743,0.03473 -0.3646,0.104176 -0.09,0.06945 -0.1465,0.172239 -0.1688,0.308361 l -0.1979,0 0,-0.447957 c 0.1333,-0.05695 0.2625,-0.09931 0.3875,-0.127094 0.1264,-0.02917 0.2494,-0.04375 0.3688,-0.04375 0.307,2e-6 0.5403,0.0764 0.7001,0.229187 0.1611,0.151404 0.2417,0.372257 0.2417,0.662559" />
      <path
         inkscape:connector-curvature="0"
         id="path7790"
         style="font-size:4.26704741px;text-align:center;text-anchor:middle"
         d="m 1143.6047,-59.436104 -0.3375,0 0,-0.222936 0.3375,0 0,-0.687562 0.3854,0 0,0.687562 0.7209,0 0,0.222936 -0.7209,0 0,1.406376 c 0,0.187517 0.018,0.307666 0.054,0.360449 0.036,0.05278 0.1028,0.07917 0.2,0.07917 0.1,10e-7 0.173,-0.02917 0.2188,-0.08751 0.046,-0.05973 0.07,-0.155569 0.073,-0.287526 l 0.2896,0 c -0.011,0.201407 -0.066,0.348642 -0.1646,0.441706 -0.099,0.09306 -0.2486,0.139596 -0.45,0.139596 -0.2209,0 -0.3771,-0.04862 -0.4688,-0.145847 -0.092,-0.09862 -0.1375,-0.265301 -0.1375,-0.500044 l 0,-1.406376" />
      <path
         inkscape:connector-curvature="0"
         id="path7792"
         style="font-size:4.26704741px;text-align:center;text-anchor:middle"
         d="m 1145.2757,-60.346602 c 0,-0.06389 0.023,-0.119452 0.069,-0.166681 0.047,-0.04722 0.1035,-0.07084 0.1688,-0.07084 0.064,3e-6 0.1187,0.02362 0.1646,0.07084 0.047,0.04723 0.071,0.10279 0.071,0.166681 0,0.06529 -0.023,0.120847 -0.069,0.166682 -0.046,0.04584 -0.1014,0.06876 -0.1667,0.06876 -0.065,3e-6 -0.1216,-0.02292 -0.1688,-0.06876 -0.046,-0.04583 -0.069,-0.101395 -0.069,-0.166682 m 0.4896,2.68149 0.3625,0 0,0.220853 -1.1126,0 0,-0.220853 0.3667,0 0,-1.770992 -0.3667,0 0,-0.222936 0.7501,0 0,1.993928" />
      <path
         inkscape:connector-curvature="0"
         id="path7794"
         style="font-size:4.26704741px;text-align:center;text-anchor:middle"
         d="m 1147.5113,-57.590106 c 0.2056,10e-7 0.3604,-0.08126 0.4646,-0.243771 0.1056,-0.162514 0.1583,-0.402119 0.1584,-0.718815 -10e-5,-0.316693 -0.053,-0.555603 -0.1584,-0.71673 -0.1042,-0.162513 -0.259,-0.24377 -0.4646,-0.243772 -0.2056,2e-6 -0.3612,0.08126 -0.4667,0.243772 -0.1042,0.161127 -0.1563,0.400037 -0.1563,0.71673 0,0.316696 0.053,0.556301 0.1584,0.718815 0.1055,0.162514 0.2604,0.243772 0.4646,0.243771 m 0,0.206269 c -0.3223,0 -0.5813,-0.10626 -0.7772,-0.318779 -0.1958,-0.213907 -0.2937,-0.497266 -0.2937,-0.850076 0,-0.352807 0.097,-0.635471 0.2916,-0.847992 0.1959,-0.212517 0.4556,-0.318776 0.7793,-0.318778 0.3236,2e-6 0.5827,0.106261 0.7771,0.318778 0.1959,0.212521 0.2938,0.495185 0.2938,0.847992 0,0.35281 -0.098,0.636169 -0.2938,0.850076 -0.1944,0.212519 -0.4535,0.318779 -0.7771,0.318779" />
      <path
         inkscape:connector-curvature="0"
         id="path7796"
         style="font-size:4.26704741px;text-align:center;text-anchor:middle"
         d="m 1148.9697,-57.444259 0,-0.220853 0.3459,0 0,-1.770992 -0.3667,0 0,-0.222936 0.7501,0 0,0.393785 c 0.071,-0.150012 0.1625,-0.263216 0.275,-0.339614 0.1139,-0.07639 0.2459,-0.114591 0.3959,-0.114593 0.2444,2e-6 0.4243,0.07015 0.5396,0.210435 0.1153,0.140292 0.1729,0.359062 0.1729,0.656309 l 0,1.187606 0.3417,0 0,0.220853 -1.0584,0 0,-0.220853 0.3313,0 0,-1.066762 c 0,-0.270856 -0.033,-0.456289 -0.1,-0.5563 -0.067,-0.101396 -0.1841,-0.152095 -0.3521,-0.152097 -0.1778,2e-6 -0.3133,0.06529 -0.4063,0.195851 -0.093,0.12918 -0.1396,0.318086 -0.1396,0.566717 l 0,1.012591 0.3333,0 0,0.220853 -1.0626,0" />
    </g>
    <path
       sodipodi:nodetypes="cc"
       inkscape:connector-curvature="0"
       id="path5244-82"
       d="m 458.64589,465.11208 -52.42826,13.95888"
       style="fill:none;stroke:#000000;stroke-width:1.45389593px;stroke-linecap:butt;stroke-linejoin:miter;stroke-opacity:1" />
    <g
       transform="matrix(5.4516228,0,0,5.4516228,-5653.1909,801.67574)"
       id="text5734"
       style="font-style:normal;font-variant:normal;font-weight:normal;font-stretch:normal;font-size:4.26704741px;line-height:125%;font-family:Serif;-inkscape-font-specification:Serif;text-align:center;letter-spacing:0px;word-spacing:0px;text-anchor:middle;fill:#000000;fill-opacity:1;stroke:none">
      <path
         inkscape:connector-curvature="0"
         id="path7715"
         d="m 1119.645,-35.406403 0,-0.220853 0.3959,0 0,-2.666904 -0.3959,0 0,-0.222937 2.5044,0 0,0.691729 -0.2563,0 0,-0.435456 -1.4293,0 0,1.04176 1.0189,0 0,-0.389618 0.2562,0 0,1.033425 -0.2562,0 0,-0.389618 -1.0189,0 0,1.3022 1.4627,0 0,-0.435456 0.2562,0 0,0.691728 -2.5377,0" />
      <path
         inkscape:connector-curvature="0"
         id="path7717"
         d="m 1123.7683,-36.758607 0.4646,-0.63964 -0.2979,0 0,-0.222937 0.8521,0 0,0.222937 -0.2938,0 -0.5938,0.818823 0.6918,0.952168 0.2896,0 0,0.220853 -1.023,0 0,-0.220853 0.2813,0 -0.4813,-0.662559 -0.4834,0.662559 0.2875,0 0,0.220853 -0.8417,0 0,-0.220853 0.2937,0 0.6105,-0.841741 -0.673,-0.92925 -0.2729,0 0,-0.222937 0.9897,0 0,0.222937 -0.2646,0 0.4646,0.63964" />
      <path
         inkscape:connector-curvature="0"
         id="path7719"
         d="m 1125.8101,-36.623178 0,0.21877 c 0,0.266691 0.051,0.470181 0.1521,0.610471 0.1028,0.138901 0.2514,0.208352 0.4459,0.208352 0.1959,0 0.3438,-0.07848 0.4438,-0.235438 0.1014,-0.156958 0.1521,-0.388228 0.1521,-0.693812 0,-0.30697 -0.051,-0.538241 -0.1521,-0.693812 -0.1,-0.155567 -0.2479,-0.233352 -0.4438,-0.233354 -0.1945,2e-6 -0.3431,0.07015 -0.4459,0.210436 -0.1014,0.140292 -0.1521,0.343087 -0.1521,0.608387 m -0.3833,-0.775069 -0.3688,0 0,-0.222937 0.7521,0 0,0.345865 c 0.075,-0.1389 0.1702,-0.240992 0.2855,-0.306278 0.1167,-0.06667 0.2604,-0.100006 0.4313,-0.100009 0.2722,3e-6 0.4945,0.107651 0.6667,0.322946 0.1722,0.215299 0.2583,0.496573 0.2583,0.843825 0,0.347254 -0.086,0.629223 -0.2583,0.845909 -0.1722,0.215297 -0.3945,0.322945 -0.6667,0.322945 -0.1709,0 -0.3146,-0.03264 -0.4313,-0.09792 -0.1153,-0.06667 -0.2105,-0.169459 -0.2855,-0.308361 l 0,1.010507 0.3626,0 0,0.222937 -1.1147,0 0,-0.222937 0.3688,0 0,-2.656487" />
      <path
         inkscape:connector-curvature="0"
         id="path7721"
         d="m 1129.9813,-36.473164 -1.6522,0 0,0.01667 c 0,0.298638 0.056,0.524353 0.1688,0.677143 0.1125,0.151403 0.2785,0.227104 0.4979,0.227104 0.1681,0 0.3056,-0.04375 0.4126,-0.131262 0.1083,-0.0889 0.184,-0.220158 0.2271,-0.393785 l 0.3083,0 c -0.061,0.243078 -0.1743,0.425733 -0.3396,0.547966 -0.1639,0.122233 -0.3799,0.183349 -0.648,0.183349 -0.3236,0 -0.584,-0.106259 -0.7813,-0.318778 -0.1958,-0.213907 -0.2937,-0.497266 -0.2937,-0.850076 0,-0.35003 0.096,-0.631999 0.2896,-0.845909 0.193,-0.213905 0.4465,-0.320859 0.7604,-0.320862 0.3348,3e-6 0.5918,0.103484 0.7709,0.310445 0.1792,0.205575 0.2723,0.504907 0.2792,0.897997 m -0.4521,-0.220853 c -0.01,-0.258355 -0.063,-0.452817 -0.1646,-0.583386 -0.1,-0.131954 -0.2445,-0.197932 -0.4334,-0.197934 -0.1764,2e-6 -0.3153,0.06598 -0.4167,0.197934 -0.1014,0.131958 -0.1632,0.32642 -0.1854,0.583386 l 1.2001,0" />
      <path
         inkscape:connector-curvature="0"
         id="path7723"
         d="m 1132.3878,-36.071045 c -0.054,0.236132 -0.1583,0.416009 -0.3125,0.539631 -0.1542,0.123622 -0.3535,0.185433 -0.598,0.185433 -0.3222,0 -0.5813,-0.106259 -0.7771,-0.318778 -0.1959,-0.213907 -0.2938,-0.497266 -0.2938,-0.850076 0,-0.354197 0.098,-0.63686 0.2938,-0.847992 0.1958,-0.212517 0.4549,-0.318776 0.7771,-0.318779 0.1403,3e-6 0.2799,0.01667 0.4188,0.05 0.1389,0.03195 0.2785,0.08126 0.4188,0.14793 l 0,0.566717 -0.223,0 c -0.029,-0.19446 -0.093,-0.336139 -0.1916,-0.425038 -0.097,-0.0889 -0.2369,-0.133343 -0.4188,-0.133345 -0.207,2e-6 -0.3633,0.08057 -0.4688,0.241688 -0.1056,0.159738 -0.1584,0.399343 -0.1584,0.718814 0,0.319474 0.052,0.559773 0.1563,0.720898 0.1056,0.161126 0.2625,0.241688 0.4709,0.241688 0.1653,0 0.2972,-0.04306 0.3958,-0.129178 0.099,-0.08612 0.166,-0.215991 0.2021,-0.389618 l 0.3084,0" />
      <path
         inkscape:connector-curvature="0"
         id="path7725"
         d="m 1133.0462,-37.398247 -0.3375,0 0,-0.222937 0.3375,0 0,-0.687561 0.3854,0 0,0.687561 0.7209,0 0,0.222937 -0.7209,0 0,1.406376 c 0,0.187517 0.018,0.307666 0.054,0.360448 0.036,0.05278 0.1028,0.07917 0.2,0.07917 0.1,0 0.173,-0.02917 0.2188,-0.08751 0.046,-0.05973 0.07,-0.155569 0.073,-0.287525 l 0.2896,0 c -0.011,0.201407 -0.066,0.348642 -0.1646,0.441706 -0.099,0.09306 -0.2486,0.139595 -0.45,0.139595 -0.2209,0 -0.3771,-0.04861 -0.4688,-0.145846 -0.092,-0.09862 -0.1375,-0.265301 -0.1375,-0.500044 l 0,-1.406376" />
      <path
         inkscape:connector-curvature="0"
         id="path7727"
         d="m 1136.0006,-36.102298 0,-0.468792 -0.4938,0 c -0.1903,10e-7 -0.3319,0.04098 -0.425,0.122928 -0.093,0.08195 -0.1396,0.207658 -0.1396,0.377117 0,0.154181 0.047,0.276414 0.1417,0.366699 0.094,0.09029 0.2222,0.135429 0.3833,0.135429 0.1598,0 0.2883,-0.04931 0.3855,-0.14793 0.099,-0.09862 0.1479,-0.227103 0.1479,-0.385451 m 0.3834,-0.687561 0,1.162603 0.3417,0 0,0.220853 -0.7251,0 0,-0.239604 c -0.085,0.102787 -0.1826,0.178488 -0.2937,0.227103 -0.1112,0.04862 -0.241,0.07292 -0.3897,0.07292 -0.2458,0 -0.441,-0.06528 -0.5854,-0.19585 -0.1445,-0.130567 -0.2167,-0.306972 -0.2167,-0.529214 0,-0.229186 0.083,-0.40698 0.2479,-0.533381 0.1653,-0.126399 0.3987,-0.189599 0.7001,-0.1896 l 0.5375,0 0,-0.152097 c 0,-0.168069 -0.051,-0.297942 -0.1542,-0.389618 -0.1014,-0.09306 -0.2444,-0.139594 -0.4292,-0.139596 -0.1528,2e-6 -0.2743,0.03473 -0.3646,0.104176 -0.09,0.06945 -0.1465,0.172239 -0.1687,0.308361 l -0.198,0 0,-0.447957 c 0.1334,-0.05695 0.2625,-0.09931 0.3876,-0.127095 0.1264,-0.02917 0.2493,-0.04375 0.3687,-0.04375 0.307,3e-6 0.5404,0.0764 0.7001,0.229188 0.1611,0.151404 0.2417,0.372257 0.2417,0.662559" />
      <path
         inkscape:connector-curvature="0"
         id="path7729"
         d="m 1137.0195,-35.406403 0,-0.220853 0.3458,0 0,-1.770991 -0.3667,0 0,-0.222937 0.7501,0 0,0.393786 c 0.071,-0.150012 0.1625,-0.263216 0.275,-0.339614 0.1139,-0.07639 0.2459,-0.114591 0.3959,-0.114594 0.2445,3e-6 0.4243,0.07015 0.5396,0.210436 0.1153,0.140292 0.173,0.359061 0.173,0.656308 l 0,1.187606 0.3417,0 0,0.220853 -1.0585,0 0,-0.220853 0.3313,0 0,-1.066761 c 0,-0.270856 -0.033,-0.456289 -0.1,-0.5563 -0.067,-0.101396 -0.1841,-0.152095 -0.3521,-0.152097 -0.1778,2e-6 -0.3132,0.06529 -0.4063,0.195851 -0.093,0.12918 -0.1396,0.318085 -0.1396,0.566717 l 0,1.01259 0.3334,0 0,0.220853 -1.0626,0" />
      <path
         inkscape:connector-curvature="0"
         id="path7731"
         d="m 1141.7886,-36.071045 c -0.054,0.236132 -0.1583,0.416009 -0.3125,0.539631 -0.1542,0.123622 -0.3535,0.185433 -0.598,0.185433 -0.3222,0 -0.5813,-0.106259 -0.7771,-0.318778 -0.1959,-0.213907 -0.2938,-0.497266 -0.2938,-0.850076 0,-0.354197 0.098,-0.63686 0.2938,-0.847992 0.1958,-0.212517 0.4549,-0.318776 0.7771,-0.318779 0.1403,3e-6 0.2799,0.01667 0.4188,0.05 0.1389,0.03195 0.2785,0.08126 0.4188,0.14793 l 0,0.566717 -0.2229,0 c -0.029,-0.19446 -0.093,-0.336139 -0.1917,-0.425038 -0.097,-0.0889 -0.2368,-0.133343 -0.4188,-0.133345 -0.207,2e-6 -0.3632,0.08057 -0.4688,0.241688 -0.1055,0.159738 -0.1583,0.399343 -0.1583,0.718814 0,0.319474 0.052,0.559773 0.1562,0.720898 0.1056,0.161126 0.2626,0.241688 0.4709,0.241688 0.1653,0 0.2973,-0.04306 0.3959,-0.129178 0.099,-0.08612 0.166,-0.215991 0.2021,-0.389618 l 0.3083,0" />
      <path
         inkscape:connector-curvature="0"
         id="path7733"
         d="m 1142.9075,-35.000116 0.1458,-0.368783 -0.8271,-2.029348 -0.2521,0 0,-0.222937 1.0188,0 0,0.222937 -0.3542,0 0.623,1.523053 0.623,-1.523053 -0.3313,0 0,-0.222937 0.8313,0 0,0.222937 -0.2479,0 -1.0147,2.491889 c -0.07,0.172237 -0.1465,0.289608 -0.2313,0.352115 -0.085,0.06389 -0.2042,0.09584 -0.3583,0.09584 -0.065,-1e-6 -0.1327,-0.0056 -0.2021,-0.01667 -0.068,-0.01111 -0.1369,-0.02709 -0.2063,-0.04792 l 0,-0.422955 0.1958,0 c 0.01,0.09445 0.032,0.16182 0.071,0.202102 0.04,0.04167 0.1021,0.0625 0.1854,0.06251 0.076,-10e-7 0.1375,-0.02153 0.1834,-0.06459 0.047,-0.04167 0.096,-0.126401 0.1479,-0.254189" />
      <path
         inkscape:connector-curvature="0"
         id="path7735"
         d="m 1123.6308,-30.072593 -0.8147,-1.991845 -0.2521,0 0,-0.222936 1.0189,0 0,0.222936 -0.3542,0 0.6229,1.523053 0.623,-1.523053 -0.3313,0 0,-0.222936 0.8313,0 0,0.222936 -0.2479,0 -0.8147,1.991845 -0.2812,0" />
      <path
         inkscape:connector-curvature="0"
         id="path7737"
         d="m 1125.3997,-32.974936 c 0,-0.06389 0.023,-0.119452 0.069,-0.166681 0.047,-0.04722 0.1035,-0.07084 0.1688,-0.07084 0.064,3e-6 0.1188,0.02362 0.1646,0.07084 0.047,0.04723 0.071,0.10279 0.071,0.166681 0,0.06529 -0.023,0.120847 -0.069,0.166682 -0.046,0.04584 -0.1014,0.06876 -0.1667,0.06876 -0.065,3e-6 -0.1215,-0.02292 -0.1688,-0.06876 -0.046,-0.04584 -0.069,-0.101395 -0.069,-0.166682 m 0.4896,2.68149 0.3625,0 0,0.220853 -1.1126,0 0,-0.220853 0.3667,0 0,-1.770992 -0.3667,0 0,-0.222936 0.7501,0 0,1.993928" />
      <path
         inkscape:connector-curvature="0"
         id="path7739"
         d="m 1127.6353,-30.21844 c 0.2056,0 0.3604,-0.08126 0.4646,-0.243771 0.1056,-0.162514 0.1584,-0.402119 0.1584,-0.718815 0,-0.316693 -0.053,-0.555603 -0.1584,-0.71673 -0.1042,-0.162513 -0.259,-0.24377 -0.4646,-0.243772 -0.2056,2e-6 -0.3611,0.08126 -0.4667,0.243772 -0.1042,0.161127 -0.1563,0.400037 -0.1563,0.71673 0,0.316696 0.053,0.556301 0.1584,0.718815 0.1055,0.162514 0.2604,0.243771 0.4646,0.243771 m 0,0.206269 c -0.3223,0 -0.5813,-0.10626 -0.7772,-0.318779 -0.1958,-0.213907 -0.2937,-0.497266 -0.2937,-0.850076 0,-0.352807 0.097,-0.635471 0.2917,-0.847992 0.1958,-0.212517 0.4556,-0.318776 0.7792,-0.318778 0.3236,2e-6 0.5827,0.106261 0.7771,0.318778 0.1959,0.212521 0.2938,0.495185 0.2938,0.847992 0,0.35281 -0.098,0.636169 -0.2938,0.850076 -0.1944,0.212519 -0.4535,0.318779 -0.7771,0.318779" />
      <path
         inkscape:connector-curvature="0"
         id="path7741"
         d="m 1129.7938,-30.293446 0.3626,0 0,0.220853 -1.1147,0 0,-0.220853 0.3688,0 0,-2.80025 -0.3688,0 0,-0.220853 0.7521,0 0,3.021103" />
      <path
         inkscape:connector-curvature="0"
         id="path7743"
         d="m 1131.9836,-30.768489 0,-0.468792 -0.4938,0 c -0.1903,2e-6 -0.332,0.04098 -0.425,0.122928 -0.093,0.08195 -0.1396,0.207658 -0.1396,0.377117 0,0.154181 0.047,0.276414 0.1417,0.366699 0.094,0.09029 0.2222,0.135429 0.3833,0.135429 0.1598,0 0.2882,-0.04931 0.3855,-0.14793 0.099,-0.09862 0.1479,-0.227103 0.1479,-0.385451 m 0.3834,-0.687561 0,1.162604 0.3417,0 0,0.220853 -0.7251,0 0,-0.239605 c -0.085,0.102787 -0.1827,0.178488 -0.2938,0.227104 -0.1111,0.04862 -0.241,0.07292 -0.3896,0.07292 -0.2458,0 -0.441,-0.06528 -0.5855,-0.195851 -0.1444,-0.130567 -0.2166,-0.306971 -0.2166,-0.529214 0,-0.229186 0.083,-0.40698 0.2479,-0.533381 0.1653,-0.126399 0.3986,-0.189599 0.7001,-0.1896 l 0.5375,0 0,-0.152097 c 0,-0.168069 -0.051,-0.297941 -0.1542,-0.389618 -0.1014,-0.09306 -0.2444,-0.139594 -0.4292,-0.139596 -0.1528,2e-6 -0.2743,0.03473 -0.3646,0.104176 -0.09,0.06945 -0.1465,0.172239 -0.1688,0.308361 l -0.1979,0 0,-0.447957 c 0.1333,-0.05695 0.2625,-0.09931 0.3875,-0.127094 0.1264,-0.02917 0.2494,-0.04375 0.3688,-0.04375 0.307,2e-6 0.5403,0.0764 0.7001,0.229187 0.1611,0.151404 0.2417,0.372257 0.2417,0.662559" />
      <path
         inkscape:connector-curvature="0"
         id="path7745"
         d="m 1133.2879,-32.064438 -0.3375,0 0,-0.222936 0.3375,0 0,-0.687562 0.3854,0 0,0.687562 0.7209,0 0,0.222936 -0.7209,0 0,1.406376 c 0,0.187517 0.018,0.307666 0.054,0.360449 0.036,0.05278 0.1028,0.07917 0.2,0.07917 0.1,0 0.173,-0.02917 0.2188,-0.08751 0.046,-0.05973 0.07,-0.15557 0.073,-0.287526 l 0.2896,0 c -0.011,0.201407 -0.066,0.348642 -0.1646,0.441706 -0.099,0.09306 -0.2486,0.139596 -0.45,0.139596 -0.2209,0 -0.3771,-0.04862 -0.4688,-0.145847 -0.092,-0.09862 -0.1375,-0.265301 -0.1375,-0.500044 l 0,-1.406376" />
      <path
         inkscape:connector-curvature="0"
         id="path7747"
         d="m 1134.9589,-32.974936 c 0,-0.06389 0.023,-0.119452 0.069,-0.166681 0.047,-0.04722 0.1035,-0.07084 0.1688,-0.07084 0.064,3e-6 0.1187,0.02362 0.1646,0.07084 0.047,0.04723 0.071,0.10279 0.071,0.166681 0,0.06529 -0.023,0.120847 -0.069,0.166682 -0.046,0.04584 -0.1014,0.06876 -0.1667,0.06876 -0.065,3e-6 -0.1216,-0.02292 -0.1688,-0.06876 -0.046,-0.04584 -0.069,-0.101395 -0.069,-0.166682 m 0.4896,2.68149 0.3625,0 0,0.220853 -1.1126,0 0,-0.220853 0.3667,0 0,-1.770992 -0.3667,0 0,-0.222936 0.7501,0 0,1.993928" />
      <path
         inkscape:connector-curvature="0"
         id="path7749"
         d="m 1137.1945,-30.21844 c 0.2056,0 0.3604,-0.08126 0.4646,-0.243771 0.1056,-0.162514 0.1584,-0.402119 0.1584,-0.718815 0,-0.316693 -0.053,-0.555603 -0.1584,-0.71673 -0.1042,-0.162513 -0.259,-0.24377 -0.4646,-0.243772 -0.2056,2e-6 -0.3612,0.08126 -0.4667,0.243772 -0.1042,0.161127 -0.1563,0.400037 -0.1563,0.71673 0,0.316696 0.053,0.556301 0.1584,0.718815 0.1055,0.162514 0.2604,0.243771 0.4646,0.243771 m 0,0.206269 c -0.3223,0 -0.5813,-0.10626 -0.7772,-0.318779 -0.1958,-0.213907 -0.2937,-0.497266 -0.2937,-0.850076 0,-0.352807 0.097,-0.635471 0.2916,-0.847992 0.1959,-0.212517 0.4556,-0.318776 0.7793,-0.318778 0.3236,2e-6 0.5827,0.106261 0.7771,0.318778 0.1959,0.212521 0.2938,0.495185 0.2938,0.847992 0,0.35281 -0.098,0.636169 -0.2938,0.850076 -0.1944,0.212519 -0.4535,0.318779 -0.7771,0.318779" />
      <path
         inkscape:connector-curvature="0"
         id="path7751"
         d="m 1138.6529,-30.072593 0,-0.220853 0.3459,0 0,-1.770992 -0.3667,0 0,-0.222936 0.7501,0 0,0.393785 c 0.071,-0.150012 0.1625,-0.263216 0.275,-0.339614 0.1139,-0.07639 0.2459,-0.114591 0.3959,-0.114593 0.2444,2e-6 0.4243,0.07015 0.5396,0.210435 0.1153,0.140292 0.1729,0.359062 0.1729,0.656309 l 0,1.187606 0.3417,0 0,0.220853 -1.0584,0 0,-0.220853 0.3313,0 0,-1.066762 c 0,-0.270856 -0.033,-0.456289 -0.1,-0.5563 -0.067,-0.101396 -0.1841,-0.152095 -0.3521,-0.152097 -0.1778,2e-6 -0.3133,0.06529 -0.4063,0.195851 -0.093,0.12918 -0.1396,0.318085 -0.1396,0.566717 l 0,1.012591 0.3333,0 0,0.220853 -1.0626,0" />
    </g>
    <path
       sodipodi:nodetypes="cc"
       inkscape:connector-curvature="0"
       id="path5244-82-1"
       d="M 440.77765,607.3803 326.66592,597.84067"
       style="fill:none;stroke:#000000;stroke-width:1.45389593px;stroke-linecap:butt;stroke-linejoin:miter;stroke-opacity:1" />
    <g
       style="stroke-linecap:butt;stroke-linejoin:round"
       transform="matrix(1.1993066,0,0,1.1993066,40.714668,-71.235364)"
       id="g5862">
      <path
         style="fill:none;stroke:#000000;stroke-width:2.29999995;stroke-linecap:butt;stroke-linejoin:miter;stroke-miterlimit:4;stroke-dasharray:none;stroke-opacity:1"
         d="m 197.28208,529.3923 -12.12183,12.12184"
         id="path5788"
         inkscape:connector-curvature="0" />
      <path
         inkscape:connector-curvature="0"
         id="path5790"
         d="M 197.28208,541.51414 185.16025,529.3923"
         style="fill:none;stroke:#000000;stroke-width:2.29999995;stroke-linecap:butt;stroke-linejoin:miter;stroke-miterlimit:4;stroke-dasharray:none;stroke-opacity:1" />
    </g>
    <g
       transform="matrix(5.4516228,0,0,5.4516228,-5653.1909,801.67574)"
       id="text5177-8-9"
       style="font-style:normal;font-variant:normal;font-weight:normal;font-stretch:normal;font-size:4.26704741px;line-height:125%;font-family:Serif;-inkscape-font-specification:Serif;text-align:center;letter-spacing:0px;word-spacing:0px;text-anchor:middle;fill:#000000;fill-opacity:1;stroke:none">
      <path
         inkscape:connector-curvature="0"
         id="path7706"
         d="m 1067.764,-42.917635 c -0.049,-0.259743 -0.15,-0.451427 -0.3042,-0.575052 -0.1542,-0.125008 -0.3688,-0.187514 -0.6438,-0.187516 -0.3583,2e-6 -0.6257,0.11529 -0.8021,0.345864 -0.1764,0.230578 -0.2646,0.57922 -0.2646,1.045926 0,0.456987 0.091,0.802851 0.2729,1.037593 0.182,0.234743 0.4493,0.352115 0.8022,0.352115 0.1569,0 0.3069,-0.01945 0.45,-0.05834 0.1431,-0.03889 0.2792,-0.09723 0.4084,-0.175015 l 0,-0.802155 -0.5855,0 0,-0.222937 1.0084,0 0,1.16052 c -0.1847,0.106954 -0.384,0.187517 -0.5979,0.241689 -0.2126,0.05278 -0.4404,0.07917 -0.6834,0.07917 -0.4695,0 -0.846,-0.146541 -1.1293,-0.439622 -0.282,-0.29447 -0.423,-0.685477 -0.423,-1.173022 0,-0.491708 0.1417,-0.883409 0.4251,-1.175104 0.2833,-0.293079 0.6646,-0.43962 1.1438,-0.439623 0.1778,3e-6 0.3612,0.02084 0.5501,0.06251 0.1903,0.04028 0.3924,0.102095 0.6063,0.185433 l 0,0.737566 -0.2334,0" />
      <path
         inkscape:connector-curvature="0"
         id="path7708"
         d="m 1070.1392,-41.432086 0,-0.468792 -0.4938,0 c -0.1903,10e-7 -0.3319,0.04098 -0.425,0.122928 -0.093,0.08195 -0.1396,0.207658 -0.1396,0.377117 0,0.154181 0.047,0.276414 0.1417,0.366699 0.094,0.09029 0.2222,0.135429 0.3834,0.135429 0.1597,0 0.2882,-0.04931 0.3854,-0.14793 0.099,-0.09862 0.1479,-0.227103 0.1479,-0.385451 m 0.3834,-0.687562 0,1.162604 0.3417,0 0,0.220853 -0.7251,0 0,-0.239605 c -0.085,0.102788 -0.1826,0.178489 -0.2937,0.227104 -0.1112,0.04862 -0.241,0.07292 -0.3897,0.07292 -0.2458,0 -0.441,-0.06528 -0.5854,-0.195851 -0.1445,-0.130566 -0.2167,-0.306971 -0.2167,-0.529213 0,-0.229187 0.083,-0.40698 0.2479,-0.533381 0.1653,-0.126399 0.3987,-0.189599 0.7001,-0.189601 l 0.5375,0 0,-0.152097 c 0,-0.168068 -0.051,-0.297941 -0.1541,-0.389618 -0.1014,-0.09306 -0.2445,-0.139593 -0.4293,-0.139595 -0.1527,2e-6 -0.2743,0.03473 -0.3646,0.104176 -0.09,0.06945 -0.1465,0.172239 -0.1687,0.30836 l -0.198,0 0,-0.447956 c 0.1334,-0.05695 0.2626,-0.09931 0.3876,-0.127095 0.1264,-0.02917 0.2493,-0.04375 0.3688,-0.04375 0.3069,2e-6 0.5403,0.0764 0.7,0.229187 0.1611,0.151405 0.2417,0.372257 0.2417,0.662559" />
      <path
         inkscape:connector-curvature="0"
         id="path7710"
         d="m 1071.1539,-40.736191 0,-0.179182 1.3876,-1.812662 -1.098,0 0,0.383367 -0.2208,0 0,-0.606304 1.8126,0 0,0.179183 -1.3876,1.814745 1.2043,0 0,-0.402119 0.2229,0 0,0.622972 -1.921,0" />
      <path
         inkscape:connector-curvature="0"
         id="path7712"
         d="m 1075.546,-41.802953 -1.6523,0 0,0.01667 c 0,0.298638 0.056,0.524352 0.1688,0.677143 0.1125,0.151403 0.2785,0.227104 0.498,0.227104 0.168,0 0.3055,-0.04375 0.4125,-0.131262 0.1083,-0.0889 0.184,-0.220158 0.2271,-0.393785 l 0.3084,0 c -0.061,0.243078 -0.1744,0.425733 -0.3397,0.547966 -0.1639,0.122233 -0.3798,0.183349 -0.6479,0.183349 -0.3237,0 -0.5841,-0.106259 -0.7813,-0.318778 -0.1959,-0.213908 -0.2938,-0.497266 -0.2938,-0.850076 0,-0.35003 0.097,-0.631999 0.2896,-0.845909 0.1931,-0.213906 0.4466,-0.32086 0.7605,-0.320862 0.3347,2e-6 0.5917,0.103484 0.7709,0.310445 0.1792,0.205575 0.2722,0.504907 0.2792,0.897996 m -0.4522,-0.220853 c -0.01,-0.258355 -0.063,-0.452816 -0.1646,-0.583385 -0.1,-0.131954 -0.2444,-0.197932 -0.4333,-0.197934 -0.1764,2e-6 -0.3153,0.06598 -0.4167,0.197934 -0.1014,0.131958 -0.1632,0.326419 -0.1855,0.583385 l 1.2001,0" />
    </g>
    <path
       sodipodi:nodetypes="cc"
       inkscape:connector-curvature="0"
       id="path5244-8-1-5"
       d="m 217.29819,573.52267 34.26999,0"
       style="fill:none;stroke:#000000;stroke-width:1.45389593px;stroke-linecap:butt;stroke-linejoin:miter;stroke-opacity:1" />
    <g
       transform="matrix(5.4516228,0,0,5.4516228,-5653.1909,801.67574)"
       id="text5866"
       style="font-style:normal;font-variant:normal;font-weight:normal;font-stretch:normal;font-size:4.26704741px;line-height:125%;font-family:Serif;-inkscape-font-specification:Serif;letter-spacing:0px;word-spacing:0px;fill:#000000;fill-opacity:1;stroke:none">
      <path
         inkscape:connector-curvature="0"
         id="path7693"
         d="m 1093.0183,-21.667122 0,-0.220853 0.3979,0 0,-2.641902 -0.9146,0 0,0.48546 -0.2563,0 0,-0.733399 2.7627,0 0,0.733399 -0.2562,0 0,-0.48546 -0.9147,0 0,2.641902 0.3979,0 0,0.220853 -1.2167,0" />
      <path
         inkscape:connector-curvature="0"
         id="path7695"
         d="m 1096.4186,-22.363017 0,-0.468792 -0.4938,0 c -0.1903,1e-6 -0.332,0.04098 -0.4251,0.122927 -0.093,0.08195 -0.1396,0.207659 -0.1396,0.377117 0,0.154181 0.047,0.276414 0.1417,0.3667 0.094,0.09029 0.2223,0.135429 0.3834,0.135429 0.1597,0 0.2882,-0.04931 0.3854,-0.14793 0.099,-0.09862 0.148,-0.227103 0.148,-0.385451 m 0.3833,-0.687562 0,1.162604 0.3417,0 0,0.220853 -0.725,0 0,-0.239605 c -0.085,0.102787 -0.1827,0.178489 -0.2938,0.227104 -0.1111,0.04861 -0.241,0.07292 -0.3896,0.07292 -0.2459,0 -0.441,-0.06528 -0.5855,-0.195851 -0.1444,-0.130567 -0.2167,-0.306971 -0.2167,-0.529214 0,-0.229186 0.083,-0.406979 0.248,-0.53338 0.1653,-0.126399 0.3986,-0.189599 0.7,-0.189601 l 0.5376,0 0,-0.152097 c 0,-0.168068 -0.051,-0.297941 -0.1542,-0.389618 -0.1014,-0.09306 -0.2445,-0.139593 -0.4292,-0.139595 -0.1528,2e-6 -0.2743,0.03473 -0.3646,0.104175 -0.09,0.06945 -0.1466,0.17224 -0.1688,0.308361 l -0.1979,0 0,-0.447956 c 0.1333,-0.05695 0.2625,-0.09931 0.3875,-0.127095 0.1264,-0.02917 0.2493,-0.04375 0.3688,-0.04375 0.307,2e-6 0.5403,0.0764 0.7001,0.229187 0.1611,0.151405 0.2416,0.372257 0.2416,0.662559" />
      <path
         inkscape:connector-curvature="0"
         id="path7697"
         d="m 1099.3022,-23.88607 0,0.554216 -0.2209,0 c -0.01,-0.10973 -0.038,-0.191682 -0.092,-0.245855 -0.054,-0.05417 -0.1333,-0.08126 -0.2375,-0.08126 -0.1889,2e-6 -0.334,0.06528 -0.4354,0.195851 -0.1001,0.130568 -0.1501,0.318085 -0.1501,0.56255 l 0,1.01259 0.4438,0 0,0.220853 -1.173,0 0,-0.220853 0.3459,0 0,-1.775158 -0.3667,0 0,-0.21877 0.75,0 0,0.393785 c 0.075,-0.154178 0.1716,-0.268077 0.2897,-0.341697 0.118,-0.075 0.2618,-0.112508 0.4312,-0.11251 0.063,2e-6 0.1278,0.0049 0.1959,0.01459 0.069,0.0097 0.1424,0.02361 0.2188,0.04167" />
      <path
         inkscape:connector-curvature="0"
         id="path7699"
         d="m 1101.544,-23.658966 0,1.943923 c 0,0.318084 -0.088,0.563244 -0.2625,0.735482 -0.175,0.173626 -0.4243,0.260439 -0.748,0.26044 -0.1458,-10e-7 -0.2854,-0.0132 -0.4188,-0.03959 -0.1333,-0.02639 -0.2611,-0.06598 -0.3833,-0.118761 l 0,-0.464625 0.2,0 c 0.025,0.144457 0.084,0.250022 0.1771,0.316695 0.093,0.06667 0.2264,0.100008 0.4,0.100009 0.225,-1e-6 0.3896,-0.0639 0.4938,-0.191684 0.1056,-0.1264 0.1584,-0.325724 0.1584,-0.59797 l 0,-0.297943 c -0.075,0.138901 -0.1709,0.241688 -0.2876,0.308361 -0.1153,0.06528 -0.2583,0.09793 -0.4292,0.09793 -0.2722,0 -0.4952,-0.107648 -0.6688,-0.322945 -0.1722,-0.216686 -0.2583,-0.498655 -0.2583,-0.845909 0,-0.347252 0.086,-0.628527 0.2583,-0.843825 0.1723,-0.215295 0.3952,-0.322944 0.6688,-0.322946 0.1709,2e-6 0.3139,0.03334 0.4292,0.100009 0.1167,0.06529 0.2126,0.167378 0.2876,0.306277 l 0,-0.345864 0.75,0 0,0.222937 -0.3667,0 m -0.3833,0.775069 c 0,-0.2653 -0.051,-0.468096 -0.1542,-0.608388 -0.1014,-0.140288 -0.2493,-0.210433 -0.4438,-0.210435 -0.1972,2e-6 -0.3466,0.07779 -0.448,0.233354 -0.1,0.155571 -0.15,0.386841 -0.15,0.693812 0,0.305584 0.05,0.536854 0.15,0.693812 0.1014,0.156958 0.2508,0.235438 0.448,0.235437 0.1945,1e-6 0.3424,-0.06945 0.4438,-0.208351 0.1028,-0.14029 0.1542,-0.34378 0.1542,-0.610472 l 0,-0.218769" />
      <path
         inkscape:connector-curvature="0"
         id="path7701"
         d="m 1104.3505,-22.733884 -1.6522,0 0,0.01667 c 0,0.298639 0.056,0.524353 0.1688,0.677144 0.1125,0.151403 0.2785,0.227104 0.4979,0.227104 0.1681,0 0.3056,-0.04375 0.4126,-0.131262 0.1083,-0.0889 0.184,-0.220158 0.2271,-0.393785 l 0.3083,0 c -0.061,0.243078 -0.1743,0.425733 -0.3396,0.547965 -0.1639,0.122234 -0.3799,0.18335 -0.648,0.18335 -0.3236,0 -0.584,-0.106259 -0.7813,-0.318778 -0.1958,-0.213908 -0.2938,-0.497266 -0.2938,-0.850076 0,-0.35003 0.097,-0.631999 0.2897,-0.845909 0.193,-0.213906 0.4465,-0.32086 0.7604,-0.320862 0.3348,2e-6 0.5918,0.103484 0.7709,0.310444 0.1792,0.205576 0.2723,0.504908 0.2792,0.897997 m -0.4521,-0.220853 c -0.01,-0.258355 -0.063,-0.452816 -0.1646,-0.583385 -0.1,-0.131954 -0.2445,-0.197932 -0.4334,-0.197934 -0.1764,2e-6 -0.3153,0.06598 -0.4167,0.197934 -0.1014,0.131958 -0.1632,0.326419 -0.1854,0.583385 l 1.2001,0" />
      <path
         inkscape:connector-curvature="0"
         id="path7703"
         d="m 1105.0235,-23.658966 -0.3375,0 0,-0.222937 0.3375,0 0,-0.687561 0.3855,0 0,0.687561 0.7209,0 0,0.222937 -0.7209,0 0,1.406375 c 0,0.187517 0.018,0.307667 0.054,0.360449 0.036,0.05278 0.1028,0.07917 0.2,0.07917 0.1001,0 0.173,-0.02917 0.2188,-0.08751 0.046,-0.05973 0.07,-0.155569 0.073,-0.287526 l 0.2896,0 c -0.011,0.201407 -0.066,0.348643 -0.1645,0.441706 -0.099,0.09306 -0.2487,0.139596 -0.4501,0.139596 -0.2208,0 -0.3771,-0.04862 -0.4688,-0.145846 -0.092,-0.09862 -0.1375,-0.265301 -0.1375,-0.500045 l 0,-1.406375" />
    </g>
    <path
       sodipodi:nodetypes="cc"
       inkscape:connector-curvature="0"
       id="path5244-8-1-5-8"
       d="m 327.43187,665.20359 7.10347,-22.90417"
       style="fill:none;stroke:#000000;stroke-width:1.45389593px;stroke-linecap:butt;stroke-linejoin:miter;stroke-opacity:1" />
    <rect
       rx="5.4053707"
       transform="matrix(0.7913981,0.61130111,-0.61130111,0.7913981,0,0)"
       y="271.65994"
       x="549.10492"
       height="29.525133"
       width="117.34348"
       id="rect5011"
       style="opacity:0.85344825;fill:none;stroke:#ff0a00;stroke-width:3.17963004;stroke-linecap:round;stroke-linejoin:round;stroke-miterlimit:4;stroke-dasharray:none;stroke-dashoffset:0;stroke-opacity:1" />
  </g>
</svg>
